{"glyphs":{"0":{"ha":687,"x_min":31,"x_max":672,"o":"m 465 419 q 469 644 483 565 q 393 724 456 724 q 295 644 330 724 q 242 419 261 565 q 233 194 222 272 q 308 115 244 115 q 407 192 372 115 q 465 419 443 269 m 639 419 q 592 220 622 304 q 517 85 561 137 q 291 -17 430 -17 q 92 85 152 -17 q 66 419 31 187 q 186 754 100 652 q 413 856 272 856 q 611 752 554 856 q 639 419 670 641 z "},"1":{"ha":478,"x_min":31,"x_max":450,"o":"m 450 841 l 333 0 l 157 0 l 250 663 q 169 604 209 633 q 94 550 130 574 l 31 659 q 108 714 69 687 q 182 765 148 741 q 246 808 217 789 q 293 841 276 828 l 450 841 z "},"2":{"ha":631,"x_min":31,"x_max":630,"o":"m 163 681 q 152 802 159 744 q 304 848 194 830 q 380 856 341 856 q 598 628 628 856 q 359 239 576 448 q 250 139 302 183 q 386 144 317 141 q 541 148 456 148 l 520 0 l 31 0 l 46 122 q 322 409 243 302 q 415 591 396 509 q 319 717 430 717 q 246 707 289 717 q 163 681 183 694 z "},"3":{"ha":661,"x_min":31,"x_max":648,"o":"m 174 813 q 280 844 207 833 q 394 856 352 856 q 585 802 522 856 q 633 644 648 748 q 487 446 615 515 q 602 246 626 402 q 491 44 585 113 q 267 -17 406 -17 q 59 37 159 -17 q 31 48 39 46 l 94 172 q 116 162 100 170 q 154 146 131 154 q 269 126 215 126 q 365 155 324 126 q 416 246 406 183 q 394 335 426 309 q 315 361 361 361 q 204 361 259 361 l 222 487 l 267 487 q 370 502 322 487 q 386 514 374 506 q 411 537 398 522 q 446 619 439 570 q 424 691 454 667 q 353 715 394 715 q 286 710 311 715 q 241 700 261 706 q 187 685 202 693 l 174 813 z "},"4":{"ha":656,"x_min":31,"x_max":635,"o":"m 524 841 l 250 361 l 393 361 l 411 509 l 593 533 l 567 361 l 635 361 l 615 219 l 550 219 l 519 0 l 341 0 l 372 219 l 31 219 l 46 331 l 341 841 l 524 841 z "},"5":{"ha":644,"x_min":31,"x_max":624,"o":"m 178 374 q 131 389 156 385 l 231 841 l 624 841 l 604 700 l 344 700 l 304 517 q 374 530 343 530 q 539 463 483 530 q 576 263 594 396 q 467 48 557 120 q 250 -17 383 -17 q 100 15 174 -17 q 57 38 74 26 q 31 56 41 50 l 93 167 q 191 131 143 143 q 263 120 239 120 q 400 265 378 120 q 296 404 419 404 q 224 394 259 404 q 178 374 189 383 z "},"6":{"ha":615,"x_min":19,"x_max":598,"o":"m 407 278 q 326 420 426 420 q 239 381 278 420 q 214 267 222 335 q 226 155 206 198 q 293 111 246 111 q 407 278 381 111 m 541 741 q 397 656 465 709 q 283 511 330 602 q 338 527 309 519 q 408 535 367 535 q 487 517 450 535 q 548 465 524 498 q 581 289 596 398 q 470 61 565 146 q 267 -17 385 -17 q 85 63 146 -17 q 44 319 20 152 q 211 672 70 522 q 507 863 322 793 l 541 741 z "},"7":{"ha":620,"x_min":31,"x_max":607,"o":"m 593 731 q 446 463 520 607 q 217 0 281 139 l 31 0 q 141 211 76 93 l 243 402 q 316 534 281 474 q 373 641 350 594 q 406 704 396 687 l 91 694 l 111 841 l 607 841 l 593 731 z "},"8":{"ha":644,"x_min":31,"x_max":635,"o":"m 383 724 q 304 630 320 724 q 304 543 298 563 q 376 494 317 494 q 428 585 413 494 q 437 640 431 607 q 429 698 443 672 q 383 724 415 724 m 306 361 q 226 239 244 361 q 238 145 219 176 q 298 115 257 115 q 367 145 339 115 q 403 237 394 176 q 386 330 411 298 q 306 361 361 361 m 407 856 q 579 802 522 856 q 620 644 635 748 q 472 446 602 513 q 589 246 613 402 q 485 44 572 115 q 278 -17 409 -17 q 44 126 81 -17 q 42 254 31 176 q 100 379 52 331 q 217 446 148 426 q 120 644 102 515 q 215 802 137 748 q 407 856 293 856 z "},"9":{"ha":607,"x_min":24,"x_max":600,"o":"m 213 561 q 293 417 191 417 q 380 459 341 417 q 404 572 404 531 q 394 686 415 644 q 330 728 374 728 q 213 561 235 728 m 335 328 q 225 304 278 304 q 135 321 172 304 q 74 370 98 339 q 37 552 24 433 q 150 778 57 696 q 352 856 237 856 q 533 778 472 856 q 574 522 598 691 q 409 167 546 311 q 113 -24 291 41 l 78 98 q 335 328 254 167 z "},"\r":{"ha":0,"x_min":0,"x_max":0,"o":""},"\u0000":{"ha":0,"x_min":0,"x_max":0,"o":""}," ":{"ha":459,"x_min":0,"x_max":0,"o":""},"!":{"ha":367,"x_min":31,"x_max":344,"o":"m 150 202 q 214 173 191 202 q 231 95 237 144 q 193 17 224 46 q 119 -13 161 -13 q 55 17 78 -13 q 37 94 31 46 q 78 173 46 144 q 150 202 109 202 m 246 339 l 94 339 l 152 904 l 344 904 l 246 339 z "},"\"":{"ha":437,"x_min":31,"x_max":417,"o":"m 139 593 l 31 593 l 57 900 l 200 900 l 139 593 m 356 593 l 248 593 l 276 900 l 417 900 l 356 593 z "},"#":{"ha":702,"x_min":31,"x_max":687,"o":"m 328 498 q 283 357 306 428 l 387 357 l 431 498 l 328 498 m 656 785 q 628 702 641 743 q 600 619 615 661 l 687 619 l 656 498 l 559 498 l 515 357 l 620 357 l 587 235 l 476 235 l 407 33 q 287 46 344 41 l 346 235 l 244 235 l 178 41 q 117 46 146 44 q 56 54 87 48 l 117 235 l 31 235 l 63 357 l 156 357 l 202 498 l 98 498 l 131 619 l 243 619 l 302 806 l 428 793 l 370 619 l 472 619 l 530 800 l 656 785 z "},"$":{"ha":598,"x_min":31,"x_max":576,"o":"m 544 630 q 424 656 485 656 q 300 591 307 656 q 359 498 294 544 q 422 456 389 478 q 481 406 456 433 q 533 257 546 339 q 331 48 509 83 l 319 -78 l 187 -78 l 206 39 q 31 87 104 46 l 78 213 q 237 174 187 174 q 341 246 330 174 q 281 337 344 289 q 223 381 256 359 q 165 431 191 404 q 114 580 102 498 q 178 711 126 661 q 311 781 230 761 l 328 911 l 457 911 q 446 851 450 881 q 435 789 443 820 q 576 763 507 783 l 544 630 z "},"%":{"ha":791,"x_min":31,"x_max":769,"o":"m 194 520 q 245 554 228 520 q 270 648 263 587 q 230 776 289 776 q 152 650 170 776 q 194 520 135 520 m 644 193 q 604 319 661 319 q 528 193 543 319 q 567 65 504 65 q 618 98 600 65 q 644 193 635 131 m 378 650 q 314 484 361 537 q 181 431 267 431 q 64 484 96 431 q 46 650 31 537 q 242 865 76 865 q 378 650 407 865 m 204 -7 l 61 -7 l 594 848 l 733 848 l 204 -7 m 613 407 q 733 356 698 407 q 753 192 769 304 q 688 27 737 80 q 554 -26 639 -26 q 436 27 469 -26 q 419 193 404 80 q 613 407 448 407 z "},"&":{"ha":807,"x_min":22,"x_max":785,"o":"m 317 376 q 233 257 246 348 q 248 160 226 198 q 320 122 270 122 q 424 172 381 122 l 317 376 m 381 554 q 463 665 450 598 q 456 711 467 687 q 419 735 446 735 q 376 721 393 735 q 354 676 359 707 q 349 623 348 644 q 367 574 350 602 l 381 554 m 511 61 q 278 -15 415 -15 q 93 46 157 -15 q 41 246 22 111 q 231 485 61 404 q 181 566 200 522 q 170 670 163 609 q 254 818 183 769 q 431 867 324 867 q 594 821 537 867 q 637 687 650 776 q 572 543 624 598 q 444 446 520 487 l 559 291 q 576 319 567 304 q 594 354 585 335 q 617 420 606 376 l 785 420 q 693 219 763 313 q 654 174 672 193 l 785 0 l 557 0 l 511 61 z "},"'":{"ha":230,"x_min":31,"x_max":200,"o":"m 139 593 l 31 593 l 57 900 l 200 900 l 139 593 z "},"(":{"ha":472,"x_min":31,"x_max":446,"o":"m 446 878 q 265 543 343 783 q 223 357 237 457 q 213 173 209 257 q 230 22 217 89 q 302 -163 257 -107 l 180 -239 q 37 144 52 -119 q 49 356 31 239 q 97 569 67 474 q 169 737 128 663 q 350 956 244 874 l 446 878 z "},")":{"ha":483,"x_min":31,"x_max":446,"o":"m 31 -163 q 152 24 91 -104 q 267 544 274 274 q 215 807 261 702 q 178 878 194 856 l 298 956 q 441 570 426 820 q 431 361 446 476 q 382 151 415 246 q 309 -19 350 56 q 131 -239 228 -167 l 31 -163 z "},"*":{"ha":531,"x_min":31,"x_max":506,"o":"m 483 763 q 506 639 504 644 l 343 607 l 441 483 l 320 404 l 257 550 l 150 404 q 54 483 119 428 l 183 606 q 31 639 106 620 l 91 763 l 226 698 l 235 865 l 367 865 l 324 698 l 483 763 z "},"+":{"ha":570,"x_min":31,"x_max":550,"o":"m 372 456 l 550 456 l 531 320 l 354 320 l 326 120 l 183 120 l 211 320 l 31 320 l 50 456 l 228 456 l 256 654 l 398 654 l 372 456 z "},",":{"ha":250,"x_min":31,"x_max":220,"o":"m 87 85 q 113 128 93 111 q 154 144 133 144 q 209 74 220 139 q 124 -59 200 22 q 87 -98 104 -80 l 31 -72 q 87 17 76 -22 q 84 46 89 31 q 87 80 80 61 l 87 85 z "},"-":{"ha":393,"x_min":31,"x_max":365,"o":"m 348 289 l 31 289 l 52 426 l 365 426 l 348 289 z "},".":{"ha":222,"x_min":31,"x_max":183,"o":"m 119 137 q 135 137 119 137 q 167 118 150 137 q 178 64 183 98 q 150 9 172 30 q 97 -11 128 -11 q 49 9 67 -11 q 36 64 31 30 q 65 118 41 98 q 119 137 89 137 z "},"/":{"ha":709,"x_min":31,"x_max":685,"o":"m 685 917 q 433 386 606 769 q 185 -174 261 4 l 31 -174 q 380 601 257 341 q 531 917 502 861 l 685 917 z "},":":{"ha":311,"x_min":31,"x_max":289,"o":"m 146 226 q 210 195 187 226 q 226 117 233 165 q 189 41 219 69 q 119 13 159 13 q 55 41 78 13 q 37 120 31 69 q 76 195 46 165 q 146 226 106 226 m 204 619 q 267 590 244 619 q 282 511 289 561 q 244 433 276 461 q 172 406 213 406 q 109 433 131 406 q 93 511 87 461 q 131 590 100 561 q 204 619 163 619 z "},";":{"ha":354,"x_min":31,"x_max":343,"o":"m 256 619 q 277 619 256 619 q 320 590 298 619 q 336 511 343 561 q 298 433 330 461 q 226 406 267 406 q 163 433 185 406 q 146 511 141 461 q 184 590 154 561 q 256 619 215 619 m 102 96 q 137 164 111 137 q 193 191 163 191 q 267 78 285 191 q 215 -39 252 15 q 102 -193 163 -119 q 65 -172 83 -181 q 31 -152 46 -163 q 102 -11 93 -67 q 100 36 106 13 q 102 91 94 59 l 102 96 z "},"<":{"ha":504,"x_min":31,"x_max":489,"o":"m 39 450 l 489 704 l 469 570 l 220 420 l 426 270 l 409 139 l 31 393 l 39 450 z "},"=":{"ha":609,"x_min":31,"x_max":585,"o":"m 531 194 l 31 194 l 48 328 l 550 328 l 531 194 m 567 446 l 69 446 l 85 581 l 585 581 l 567 446 z "},">":{"ha":519,"x_min":31,"x_max":487,"o":"m 481 393 l 31 139 l 48 270 l 300 420 l 91 570 l 109 704 l 487 450 l 481 393 z "},"?":{"ha":509,"x_min":31,"x_max":498,"o":"m 226 93 q 190 17 220 44 q 119 -11 159 -11 q 55 17 78 -11 q 39 94 31 44 q 78 171 46 143 q 150 200 109 200 q 213 171 191 200 q 226 93 235 143 m 67 863 q 167 902 107 889 q 274 915 226 915 q 365 902 322 915 q 437 863 407 889 q 483 698 498 809 q 356 489 467 576 q 264 398 291 439 q 231 315 237 357 q 202 312 220 315 q 163 307 183 309 q 94 304 119 304 q 94 319 94 311 q 96 331 94 326 q 202 522 109 435 q 298 676 291 604 q 285 748 307 728 q 226 769 263 769 q 168 764 189 769 q 128 756 146 759 q 78 735 106 748 l 67 863 z "},"@":{"ha":998,"x_min":13,"x_max":1000,"o":"m 467 89 q 556 152 509 89 l 593 407 q 566 432 581 419 q 526 446 550 446 q 415 261 435 446 q 467 89 389 89 m 619 502 l 630 548 l 735 531 l 683 163 q 682 103 678 128 q 713 78 687 78 q 782 138 752 78 q 828 307 813 198 q 796 602 856 498 q 582 706 737 706 q 321 596 428 706 q 183 272 215 487 q 221 -53 152 57 q 459 -163 291 -163 q 533 -158 500 -163 q 585 -152 567 -154 l 593 -263 q 524 -272 570 -265 q 424 -280 478 -280 q 111 -133 211 -280 q 48 261 15 11 q 233 670 89 520 q 602 822 383 822 q 898 693 804 822 q 963 330 998 556 q 839 44 937 135 q 687 -22 769 -22 q 609 0 644 -22 q 569 69 574 22 q 542 40 556 56 q 507 11 528 24 q 354 -7 428 -44 q 274 126 293 24 q 278 252 267 178 q 363 472 294 389 q 498 544 424 544 q 566 530 537 544 q 619 502 594 515 z "},"A":{"ha":737,"x_min":31,"x_max":707,"o":"m 463 676 q 433 596 450 644 q 396 494 417 548 q 355 381 376 439 q 311 267 333 322 l 493 267 q 483 381 489 322 q 474 494 478 439 q 467 596 470 548 q 463 676 463 644 m 383 841 l 596 841 l 707 0 l 520 0 l 504 146 l 269 146 l 209 0 l 31 0 l 383 841 z "},"B":{"ha":676,"x_min":31,"x_max":644,"o":"m 354 719 q 300 717 354 719 l 269 472 l 309 472 q 454 602 435 472 q 439 688 457 657 q 354 719 420 719 m 217 122 l 257 120 q 374 148 333 120 q 426 252 415 176 q 304 369 443 369 l 278 369 q 254 367 265 369 l 217 122 m 150 841 l 365 846 q 581 799 519 846 q 626 631 644 752 q 578 510 615 559 q 500 437 541 461 q 602 243 620 402 q 499 53 581 113 q 254 -7 417 -7 q 125 -4 185 -7 q 31 0 65 0 l 150 841 z "},"C":{"ha":691,"x_min":31,"x_max":656,"o":"m 248 419 q 256 196 226 265 q 393 122 289 122 q 479 135 439 122 q 539 154 519 148 q 541 87 541 120 q 544 20 541 54 q 441 -9 498 2 q 343 -20 383 -20 q 101 87 170 -20 q 63 419 31 194 q 194 750 94 644 q 467 856 294 856 q 570 844 524 856 q 632 826 617 833 q 656 817 648 819 l 613 683 q 556 702 593 689 q 478 715 520 715 q 317 642 367 715 q 248 419 267 569 z "},"D":{"ha":731,"x_min":31,"x_max":713,"o":"m 289 131 q 427 203 378 131 q 498 419 476 274 q 488 639 519 570 q 370 707 457 707 q 339 707 370 707 q 309 706 324 707 l 228 131 q 289 131 259 131 m 150 841 q 372 846 150 841 q 527 829 461 846 q 633 763 593 811 q 680 419 711 667 q 411 11 633 69 q 259 -7 341 -7 q 120 -4 178 -7 q 31 0 63 0 l 150 841 z "},"E":{"ha":626,"x_min":31,"x_max":604,"o":"m 31 0 l 150 841 l 604 841 l 581 696 l 309 696 l 281 502 l 489 502 l 470 367 l 261 367 l 230 144 l 506 144 l 487 0 l 31 0 z "},"F":{"ha":615,"x_min":31,"x_max":589,"o":"m 474 330 l 257 330 l 211 0 l 31 0 l 150 841 l 589 841 l 569 696 l 309 696 l 276 467 l 493 467 l 474 330 z "},"G":{"ha":691,"x_min":31,"x_max":678,"o":"m 593 20 q 467 -7 546 6 q 343 -20 387 -20 q 101 87 170 -20 q 63 419 31 194 q 194 750 94 644 q 467 856 294 856 q 576 844 519 856 q 652 826 633 833 q 678 817 670 819 l 635 683 q 550 707 602 700 q 478 715 498 715 q 317 642 367 715 q 248 419 267 569 q 256 196 226 265 q 393 122 289 122 l 430 122 l 461 346 l 372 346 l 393 487 l 657 487 l 593 20 z "},"H":{"ha":743,"x_min":31,"x_max":731,"o":"m 613 0 l 437 0 l 487 346 l 257 346 l 209 0 l 31 0 l 150 841 l 328 841 l 278 487 l 506 487 l 554 841 l 731 841 l 613 0 z "},"I":{"ha":343,"x_min":31,"x_max":328,"o":"m 209 0 l 31 0 l 150 841 l 328 841 l 209 0 z "},"J":{"ha":489,"x_min":31,"x_max":476,"o":"m 380 165 q 270 -141 348 -57 q 183 -198 233 -183 q 96 -213 133 -213 q 52 -213 96 -213 q 31 -211 43 -213 q 45 -144 39 -178 q 59 -80 52 -111 q 130 -37 100 -76 q 172 18 157 -19 q 196 126 187 54 l 298 841 l 476 841 l 380 165 z "},"K":{"ha":737,"x_min":31,"x_max":730,"o":"m 150 841 l 328 841 l 276 472 l 531 841 l 730 841 l 439 459 q 538 230 487 343 q 639 0 589 117 l 426 0 l 267 409 l 209 0 l 31 0 l 150 841 z "},"L":{"ha":502,"x_min":31,"x_max":478,"o":"m 31 0 l 150 841 l 328 841 l 228 144 l 478 144 l 446 0 l 31 0 z "},"M":{"ha":907,"x_min":31,"x_max":891,"o":"m 707 535 l 507 70 l 385 70 q 361 221 381 100 q 333 389 341 343 q 313 535 319 504 l 204 0 l 31 0 l 228 841 l 402 841 q 411 782 404 822 q 427 694 419 743 q 444 587 435 644 q 461 477 454 530 q 474 380 469 424 q 483 309 480 335 q 510 378 491 333 q 552 476 530 422 q 600 586 574 530 q 649 693 626 643 q 690 782 672 743 q 717 841 707 822 l 891 841 l 850 0 l 670 0 q 674 61 672 20 q 681 153 676 102 q 688 259 685 204 q 694 367 691 315 q 702 464 698 419 q 707 535 706 509 z "},"N":{"ha":752,"x_min":31,"x_max":730,"o":"m 309 841 l 500 313 l 502 313 q 511 406 506 324 l 572 841 l 730 841 l 611 0 l 454 0 l 257 530 q 254 491 256 517 q 246 435 252 465 l 187 0 l 31 0 l 150 841 l 309 841 z "},"O":{"ha":752,"x_min":0,"x_max":737,"o":"m 343 124 q 381 124 343 124 q 461 201 419 124 q 523 419 504 278 q 520 638 543 561 q 425 715 498 715 q 309 638 352 715 q 246 419 267 561 q 246 201 226 278 q 343 124 267 124 m 445 856 q 523 856 445 856 q 669 750 600 856 q 706 419 737 644 q 576 89 674 194 q 322 -17 478 -17 q 63 419 2 -17 q 193 750 94 644 q 445 856 291 856 z "},"P":{"ha":676,"x_min":31,"x_max":654,"o":"m 357 713 q 331 713 344 713 q 304 711 319 713 l 259 406 l 309 406 q 433 487 398 406 q 454 561 446 517 q 357 713 474 713 m 150 841 l 370 846 q 594 774 533 846 q 631 561 654 702 q 517 337 611 411 q 302 276 437 276 q 272 276 287 276 q 243 278 257 276 l 204 0 l 31 0 l 150 841 z "},"Q":{"ha":761,"x_min":0,"x_max":737,"o":"m 343 124 q 381 124 343 124 q 461 201 419 124 q 523 419 504 278 q 520 638 543 561 q 425 715 498 715 q 309 638 352 715 q 246 419 267 561 q 246 201 226 278 q 343 124 267 124 m 496 26 q 624 -57 548 -26 l 530 -176 q 385 -93 469 -163 q 322 -17 352 -63 q 63 419 2 -17 q 193 750 94 644 q 445 856 291 856 q 669 750 600 856 q 706 419 737 644 q 496 26 663 120 z "},"R":{"ha":685,"x_min":31,"x_max":663,"o":"m 263 450 l 341 446 q 467 578 446 446 q 370 713 489 713 q 298 709 343 713 l 263 450 m 309 319 l 244 320 l 200 0 l 31 0 l 150 841 q 376 846 150 841 q 598 785 537 846 q 644 574 663 724 q 580 418 630 474 q 470 343 530 361 l 587 0 l 398 0 l 309 319 z "},"S":{"ha":670,"x_min":31,"x_max":646,"o":"m 428 856 q 559 839 517 856 q 619 813 602 822 q 646 800 637 804 l 585 672 l 561 685 q 428 722 485 722 q 343 689 380 722 q 309 630 309 657 q 323 563 304 591 q 374 511 343 535 q 444 463 406 487 q 511 407 481 439 q 569 226 585 335 q 474 50 554 117 q 256 -17 394 -17 q 59 30 143 -17 q 31 46 43 41 l 91 174 q 116 161 100 170 q 152 144 131 152 q 248 122 204 122 q 370 178 330 122 q 388 225 383 194 q 372 281 393 256 q 320 329 352 306 q 252 377 289 352 q 183 433 215 402 q 126 616 111 506 q 220 791 141 726 q 428 856 300 856 z "},"T":{"ha":602,"x_min":31,"x_max":576,"o":"m 554 696 l 383 696 l 285 0 l 107 0 l 204 696 l 31 696 l 50 841 l 576 841 l 554 696 z "},"U":{"ha":694,"x_min":15,"x_max":676,"o":"m 111 841 l 289 841 l 226 393 q 210 204 202 250 q 238 141 219 157 q 294 124 257 124 q 419 274 394 124 q 439 393 428 324 l 500 841 l 676 841 l 613 393 q 507 78 583 170 q 276 -17 431 -17 q 70 78 124 -17 q 46 393 17 172 l 111 841 z "},"V":{"ha":696,"x_min":31,"x_max":681,"o":"m 148 0 l 31 841 l 215 841 l 257 261 l 257 135 l 289 261 l 498 841 l 681 841 l 330 0 l 148 0 z "},"W":{"ha":961,"x_min":31,"x_max":948,"o":"m 948 841 l 656 0 l 487 0 l 446 535 l 254 0 l 89 0 l 31 841 l 209 841 l 233 272 l 415 772 l 552 772 l 591 272 l 774 841 l 948 841 z "},"X":{"ha":828,"x_min":31,"x_max":817,"o":"m 411 294 q 235 0 269 50 l 31 0 l 326 422 l 159 841 l 361 841 q 393 735 369 817 q 430 613 417 654 q 446 550 443 572 q 509 665 463 589 q 613 841 569 759 l 817 841 l 531 420 l 709 0 l 500 0 q 461 117 481 48 q 428 228 441 185 q 411 294 415 270 z "},"Y":{"ha":722,"x_min":31,"x_max":709,"o":"m 343 0 l 165 0 l 204 278 l 189 330 q 110 583 150 457 q 31 841 70 709 l 220 841 q 249 720 235 781 q 276 605 263 659 q 298 506 289 550 q 315 435 307 461 q 350 506 315 435 q 400 605 372 550 q 459 720 428 659 l 519 841 l 709 841 q 559 583 633 709 q 411 330 485 457 l 381 278 l 343 0 z "},"Z":{"ha":670,"x_min":31,"x_max":661,"o":"m 644 726 q 250 143 450 433 l 570 143 l 550 0 l 31 0 l 46 115 l 443 698 l 139 698 l 159 841 l 661 841 l 644 726 z "},"[":{"ha":502,"x_min":31,"x_max":478,"o":"m 317 -183 l 31 -183 l 194 970 l 478 970 l 463 856 l 322 856 l 193 -67 l 333 -67 l 317 -183 z "},"\\":{"ha":389,"x_min":31,"x_max":383,"o":"m 185 917 q 383 -174 326 78 l 228 -174 q 123 374 187 7 q 31 917 59 741 l 185 917 z "},"]":{"ha":485,"x_min":31,"x_max":476,"o":"m 315 -183 l 31 -183 l 46 -67 l 187 -67 l 319 856 l 176 856 l 191 970 l 476 970 l 315 -183 z "},"^":{"ha":506,"x_min":31,"x_max":465,"o":"m 380 593 q 256 726 361 613 l 94 593 l 31 669 l 252 863 l 298 863 l 465 669 l 380 593 z "},"_":{"ha":672,"x_min":31,"x_max":633,"o":"m 613 -226 l 31 -226 l 48 -98 l 633 -98 l 613 -226 z "},"`":{"ha":322,"x_min":31,"x_max":289,"o":"m 141 1013 l 289 800 l 204 730 l 31 920 l 141 1013 z "},"a":{"ha":663,"x_min":31,"x_max":644,"o":"m 456 531 q 369 535 422 535 q 279 491 315 535 q 227 331 243 446 q 229 172 211 215 q 298 130 246 130 q 360 149 330 130 q 409 191 391 169 l 456 531 m 409 78 q 204 -17 304 -17 q 39 163 59 -17 q 44 319 31 226 q 89 480 57 413 q 163 589 120 546 q 361 667 243 667 q 644 639 502 667 l 554 0 l 409 0 l 409 78 z "},"b":{"ha":654,"x_min":31,"x_max":657,"o":"m 285 481 q 269 465 274 472 l 228 174 q 263 147 246 159 q 302 135 280 135 q 401 179 367 135 q 452 322 435 222 q 447 480 467 435 q 381 524 428 524 q 285 481 335 524 m 159 919 l 335 943 l 285 581 q 319 608 300 593 q 363 637 339 624 q 465 670 417 670 q 548 651 513 670 q 606 591 583 631 q 631 337 656 498 q 526 78 606 167 q 352 -7 452 -7 q 222 48 269 -7 q 202 76 211 63 l 176 0 l 31 0 l 159 919 z "},"c":{"ha":546,"x_min":7,"x_max":531,"o":"m 493 517 q 389 537 431 537 q 287 486 324 537 q 234 323 250 435 q 244 166 219 211 q 316 120 269 120 q 398 134 363 120 q 446 152 433 148 l 470 44 q 276 -17 369 -17 q 56 319 9 -17 q 383 670 102 670 q 531 644 463 670 l 493 517 z "},"d":{"ha":698,"x_min":31,"x_max":685,"o":"m 456 513 q 378 535 415 535 q 279 491 315 535 q 227 331 243 446 q 229 172 211 215 q 298 130 246 130 q 360 149 330 130 q 409 191 391 169 l 456 513 m 163 588 q 184 609 163 588 q 257 648 206 630 q 363 667 309 667 q 472 639 417 667 l 511 919 l 685 943 l 554 0 l 409 0 l 409 78 q 204 -17 304 -17 q 39 163 59 -17 q 44 319 31 226 q 89 480 57 413 q 163 588 120 546 z "},"e":{"ha":596,"x_min":19,"x_max":583,"o":"m 400 383 q 394 513 413 478 q 342 548 376 548 q 273 512 307 548 q 226 383 239 476 l 400 383 m 319 115 q 481 161 400 115 l 500 46 q 352 -7 456 13 q 263 -17 313 -17 q 166 2 213 -17 q 89 59 119 20 q 44 309 20 148 q 159 581 69 483 q 359 670 244 670 q 565 504 533 670 q 552 304 581 417 q 543 276 546 280 l 211 276 q 231 153 198 191 q 319 115 263 115 z "},"f":{"ha":533,"x_min":31,"x_max":511,"o":"m 489 809 q 425 820 467 820 q 369 795 383 820 q 344 707 354 770 l 337 656 l 456 656 l 435 530 l 320 530 l 204 -291 l 31 -291 l 148 530 l 78 530 l 94 656 l 163 656 l 174 731 q 240 905 191 852 q 363 957 289 957 q 511 931 459 957 q 489 809 504 876 z "},"g":{"ha":659,"x_min":19,"x_max":644,"o":"m 230 170 q 254 140 237 148 q 300 131 270 131 q 361 154 330 131 q 411 198 393 176 l 446 459 q 396 509 417 496 q 348 522 376 522 q 262 471 287 522 q 226 320 237 420 q 230 170 209 224 m 93 -150 q 254 -178 176 -178 q 326 -163 306 -178 q 374 -57 367 -130 l 394 72 l 393 72 q 314 13 363 43 q 214 -17 265 -17 q 127 3 163 -17 q 69 63 91 22 q 44 304 20 150 q 150 574 69 478 q 322 665 226 665 q 412 638 378 665 q 476 567 446 611 l 500 656 l 644 656 l 546 -54 q 461 -245 528 -183 q 267 -307 394 -307 q 142 -293 196 -307 q 57 -269 87 -278 l 93 -150 z "},"h":{"ha":643,"x_min":31,"x_max":631,"o":"m 159 919 l 335 943 l 283 572 l 285 572 q 309 594 293 578 q 350 628 326 611 q 480 670 411 670 q 602 615 572 670 q 615 443 631 559 l 556 0 l 383 0 l 437 400 q 437 495 446 470 q 387 520 428 520 q 324 500 352 520 q 267 448 280 465 l 204 0 l 31 0 l 159 919 z "},"i":{"ha":357,"x_min":31,"x_max":343,"o":"m 255 961 q 275 961 255 961 q 319 931 296 961 q 336 856 343 902 q 298 782 330 811 q 225 754 267 754 q 159 782 183 754 q 141 856 135 811 q 181 931 150 902 q 255 961 213 961 m 204 0 l 31 0 l 120 644 l 298 669 l 204 0 z "},"j":{"ha":481,"x_min":31,"x_max":481,"o":"m 476 856 q 435 782 467 811 q 363 754 404 754 q 298 782 322 754 q 280 856 274 811 q 320 931 289 902 q 393 961 352 961 q 457 931 433 961 q 476 856 481 902 m 263 644 l 437 669 l 339 -46 q 259 -244 320 -185 q 94 -304 198 -304 q 31 -294 69 -304 l 57 -169 q 130 -141 113 -159 q 169 -28 157 -106 l 263 644 z "},"k":{"ha":657,"x_min":31,"x_max":656,"o":"m 161 919 l 335 943 l 256 372 l 461 656 l 656 656 l 402 363 l 583 0 l 380 0 l 246 313 l 204 0 l 31 0 l 161 919 z "},"l":{"ha":359,"x_min":31,"x_max":335,"o":"m 204 0 l 31 0 l 159 919 l 335 943 l 204 0 z "},"m":{"ha":898,"x_min":31,"x_max":898,"o":"m 124 656 l 276 656 l 269 569 q 294 594 278 576 q 331 628 309 611 q 448 670 389 670 q 537 649 507 670 q 574 570 567 628 q 693 659 611 624 q 756 670 722 670 q 869 619 839 670 q 881 444 898 567 l 822 0 l 650 0 l 707 430 q 709 496 717 472 q 669 520 702 520 q 617 500 641 520 q 570 448 580 470 l 509 0 l 343 0 l 404 430 q 404 496 411 472 q 361 520 396 520 q 309 500 331 520 q 265 448 272 467 l 202 0 l 31 0 l 124 656 z "},"n":{"ha":641,"x_min":31,"x_max":631,"o":"m 124 656 l 276 656 l 269 572 l 272 572 q 299 594 281 578 q 344 628 317 611 q 480 670 413 670 q 602 615 572 670 q 615 443 631 559 l 552 0 l 383 0 l 437 400 q 435 495 446 470 q 385 520 424 520 q 324 500 352 520 q 267 448 272 459 l 204 0 l 31 0 l 124 656 z "},"o":{"ha":630,"x_min":31,"x_max":622,"o":"m 295 109 q 323 109 295 109 q 382 161 350 109 q 431 329 415 213 q 428 494 446 444 q 356 544 409 544 q 270 494 302 544 q 223 328 239 444 q 224 160 207 211 q 295 109 241 109 m 611 485 q 608 328 622 420 q 566 170 594 235 q 494 63 537 106 q 278 -17 415 -17 q 43 170 74 -17 q 46 330 31 235 q 159 591 67 504 q 372 670 243 670 q 611 485 580 670 z "},"p":{"ha":700,"x_min":31,"x_max":696,"o":"m 309 452 l 263 124 q 335 109 293 109 q 439 157 400 109 q 494 320 478 206 q 490 480 509 435 q 417 524 470 524 q 309 452 363 524 m 165 656 l 326 656 l 320 570 l 322 570 q 381 622 344 596 q 503 670 450 670 q 591 650 556 670 q 648 589 626 630 q 674 337 694 498 q 563 70 650 163 q 372 -17 485 -17 q 246 9 302 -17 l 202 -291 l 31 -291 l 165 656 z "},"q":{"ha":663,"x_min":19,"x_max":644,"o":"m 252 141 q 291 131 270 131 q 328 138 311 131 q 361 154 344 144 q 411 198 387 169 l 446 459 q 400 508 424 487 q 337 530 376 530 q 226 330 257 530 q 252 141 200 165 m 465 567 l 487 656 l 644 656 l 511 -291 l 341 -291 l 394 72 l 393 72 q 326 19 361 35 q 207 -17 252 -17 q 127 2 163 -17 q 69 61 91 20 q 44 317 20 150 q 150 574 69 480 q 328 665 226 665 q 465 567 406 665 z "},"r":{"ha":496,"x_min":31,"x_max":478,"o":"m 204 0 l 31 0 l 124 656 l 276 656 l 270 569 l 272 569 q 343 643 300 613 q 417 672 385 672 q 458 668 448 672 q 478 659 469 663 l 443 509 q 414 517 431 511 q 374 522 396 522 q 328 507 352 522 q 267 459 304 493 l 204 0 z "},"s":{"ha":535,"x_min":31,"x_max":520,"o":"m 78 150 q 98 141 83 148 q 133 126 113 133 q 220 109 185 109 q 277 121 256 109 q 303 164 298 133 q 293 216 307 194 q 255 257 278 237 q 204 299 231 278 q 154 348 176 320 q 113 491 102 409 q 188 621 124 572 q 359 670 252 670 q 520 644 443 670 l 494 519 q 444 531 480 520 q 367 543 407 543 q 280 491 289 543 q 292 447 276 467 q 331 408 307 428 q 385 368 356 389 q 439 320 415 346 q 481 180 494 261 q 411 41 474 98 q 230 -17 344 -17 q 115 -2 154 -17 q 31 35 48 22 l 78 150 z "},"t":{"ha":444,"x_min":31,"x_max":430,"o":"m 430 656 l 415 530 l 272 530 l 228 215 q 228 152 220 172 q 266 131 235 131 q 319 140 296 131 q 348 150 341 148 l 348 28 q 326 19 341 26 q 293 4 311 11 q 189 -17 246 -17 q 69 31 100 -17 q 52 191 37 78 l 102 530 l 31 530 l 48 656 l 119 656 l 141 813 l 317 841 l 289 656 l 430 656 z "},"u":{"ha":641,"x_min":31,"x_max":633,"o":"m 541 0 l 391 0 l 393 89 l 352 57 q 243 -7 320 19 q 183 -17 215 -17 q 61 40 91 -17 q 46 213 31 96 l 109 656 l 281 656 l 231 298 q 222 176 217 200 q 241 144 228 152 q 275 135 254 135 q 314 144 296 135 q 346 163 331 152 q 396 207 381 193 l 459 656 l 633 656 l 541 0 z "},"v":{"ha":609,"x_min":31,"x_max":604,"o":"m 131 0 l 31 656 l 206 656 l 231 383 l 241 109 l 326 383 l 426 656 l 604 656 l 319 0 l 131 0 z "},"w":{"ha":904,"x_min":31,"x_max":898,"o":"m 898 656 l 633 0 l 470 0 l 428 426 l 263 0 l 106 0 l 31 656 l 202 656 l 235 213 l 398 656 l 541 656 l 581 213 l 735 656 l 898 656 z "},"x":{"ha":689,"x_min":31,"x_max":681,"o":"m 681 656 q 459 333 537 444 l 600 0 l 417 0 q 375 131 398 44 q 344 239 352 219 q 316 183 333 219 q 278 112 298 148 q 239 44 257 76 q 213 0 220 13 l 31 0 l 265 341 l 135 656 l 320 656 q 333 613 326 644 q 350 547 341 581 q 368 480 359 513 q 381 428 376 446 l 391 444 q 412 486 400 461 q 440 540 424 511 q 469 594 456 569 q 490 637 481 619 q 500 656 498 656 l 681 656 z "},"y":{"ha":650,"x_min":31,"x_max":633,"o":"m 78 -150 q 239 -178 161 -178 q 311 -163 294 -178 q 359 -57 346 -131 l 381 83 l 378 83 q 185 -15 280 -15 q 61 42 91 -15 q 46 215 31 98 l 109 656 l 283 656 l 226 257 q 224 163 219 180 q 276 135 237 135 q 378 189 320 135 q 398 206 391 200 l 461 656 l 633 656 l 533 -54 q 448 -245 515 -183 q 252 -307 381 -307 q 44 -269 161 -307 l 78 -150 z "},"z":{"ha":563,"x_min":31,"x_max":550,"o":"m 533 548 l 239 131 l 478 131 l 463 0 l 31 0 l 46 109 l 337 524 l 120 524 l 139 656 l 550 656 l 533 548 z "},"{":{"ha":491,"x_min":31,"x_max":474,"o":"m 183 737 q 216 876 196 824 q 270 956 235 928 q 355 992 306 983 q 474 1000 404 1000 l 457 891 q 354 856 378 891 q 336 806 341 835 q 326 735 331 778 l 298 535 q 183 385 280 424 q 256 233 270 343 l 226 28 q 218 -49 220 -19 q 222 -96 215 -80 q 313 -128 237 -128 l 298 -237 q 177 -227 224 -237 q 105 -187 130 -217 q 76 -106 80 -157 q 83 28 72 -54 l 107 185 q 99 293 117 265 q 31 324 81 320 l 50 446 q 156 543 143 446 l 183 737 z "},"|":{"ha":381,"x_min":31,"x_max":350,"o":"m 170 -291 l 31 -291 l 211 985 l 350 985 l 170 -291 z "},"}":{"ha":498,"x_min":31,"x_max":474,"o":"m 456 320 q 381 294 404 320 q 346 193 356 265 l 320 20 q 233 -196 300 -143 q 149 -230 198 -222 q 31 -237 100 -237 l 46 -128 q 150 -94 124 -128 q 168 -50 163 -78 q 180 20 172 -22 l 207 233 q 320 381 222 341 q 250 535 235 424 l 278 735 q 287 812 283 781 q 283 859 291 843 q 191 891 269 891 l 206 1000 q 325 991 278 1000 q 398 956 372 981 q 422 743 448 904 l 400 574 q 406 471 389 496 q 474 444 424 446 l 456 320 z "},"~":{"ha":624,"x_min":31,"x_max":604,"o":"m 31 446 q 235 570 143 570 q 300 555 274 570 q 348 520 326 539 q 391 486 370 502 q 437 470 411 470 q 552 524 498 470 l 604 446 q 474 339 533 367 q 408 326 444 326 q 347 341 372 326 q 300 374 322 356 q 256 407 278 393 q 210 422 235 422 q 166 415 185 422 q 130 398 146 407 q 83 361 98 380 q 31 446 54 415 z "}," ":{"ha":459,"x_min":0,"x_max":0,"o":""},"¢":{"ha":554,"x_min":13,"x_max":530,"o":"m 230 415 q 317 220 202 220 q 446 254 370 220 l 470 148 q 448 137 461 144 q 415 120 435 130 q 320 91 378 102 l 306 -33 l 178 -33 q 187 31 183 0 q 198 94 191 63 q 50 407 15 137 q 289 737 89 687 l 304 870 l 431 870 q 413 743 430 854 q 530 719 489 739 q 510 657 519 687 q 489 596 502 628 q 385 615 452 615 q 282 568 319 615 q 230 415 246 520 z "},"©":{"ha":843,"x_min":17,"x_max":830,"o":"m 367 417 q 373 304 356 335 q 437 272 391 272 q 513 285 483 272 q 515 241 515 261 q 517 202 515 220 q 477 188 502 196 q 406 180 452 180 q 257 417 228 180 q 472 652 294 652 q 578 630 533 652 l 550 548 q 519 556 541 550 q 476 561 498 561 q 404 530 430 561 q 367 417 378 498 m 700 419 q 656 667 722 572 q 470 759 591 759 q 259 667 350 759 q 146 419 169 572 q 193 170 124 265 q 372 78 261 78 q 585 170 489 78 q 700 419 678 261 m 800 419 q 747 240 787 320 q 648 102 707 159 q 361 -19 526 -19 q 217 13 281 -19 q 111 102 152 44 q 46 419 19 230 q 200 739 72 613 q 485 857 320 857 q 737 739 648 857 q 800 419 830 619 z "},"®":{"ha":720,"x_min":17,"x_max":702,"o":"m 341 739 l 322 613 q 385 629 356 613 q 420 680 415 644 q 415 727 426 715 q 374 739 404 739 l 341 739 m 278 798 q 378 802 278 798 q 475 777 443 802 q 499 696 507 752 q 467 614 491 641 q 406 574 443 587 l 472 420 l 385 420 l 343 535 q 330 542 337 539 q 315 550 322 544 l 296 420 l 226 420 l 278 798 m 593 609 q 593 732 604 678 q 556 824 581 787 q 400 900 502 900 q 222 824 296 900 q 128 611 146 746 q 165 396 107 480 q 319 320 219 320 q 496 396 422 320 q 593 609 574 476 m 678 611 q 631 455 665 524 q 548 337 596 385 q 309 235 443 235 q 96 337 172 235 q 46 611 17 441 q 176 883 69 780 q 415 983 280 983 q 624 883 552 983 q 678 611 700 780 z "},"¼":{"ha":1204,"x_min":107,"x_max":1111,"o":"m 398 15 q 329 25 361 20 q 259 37 296 30 l 830 894 l 969 876 l 398 15 m 107 809 q 315 961 265 930 l 435 961 l 341 302 l 194 302 l 267 804 q 152 715 187 739 l 107 809 m 1024 511 l 811 139 l 922 139 l 939 254 l 1078 274 l 1057 139 l 1111 139 l 1096 28 l 1043 28 l 1019 -143 l 881 -143 l 907 28 l 641 28 l 654 119 l 881 511 l 1024 511 z "},"½":{"ha":1233,"x_min":107,"x_max":1141,"o":"m 1069 -143 l 680 -143 l 696 -33 q 759 28 717 -13 q 848 119 802 69 q 970 319 957 237 q 896 402 987 402 q 826 393 859 402 q 781 378 793 383 l 772 485 q 837 508 791 493 q 946 524 883 524 q 1094 476 1048 524 q 1128 337 1141 428 q 1037 148 1113 241 q 872 -15 978 78 l 1087 -15 l 1069 -143 m 398 15 q 329 25 361 20 q 259 37 296 30 l 830 894 l 969 876 l 398 15 m 107 809 q 315 961 265 930 l 435 961 l 341 302 l 194 302 l 267 804 q 152 715 187 739 l 107 809 z "},"¾":{"ha":1330,"x_min":78,"x_max":1237,"o":"m 524 15 q 456 25 489 20 q 385 37 422 30 l 956 894 l 1094 876 l 524 15 m 1150 511 l 939 139 l 1048 139 l 1065 254 l 1204 274 l 1183 139 l 1237 139 l 1222 28 l 1170 28 l 1144 -143 l 1009 -143 l 1033 28 l 769 28 l 781 119 l 1009 511 l 1150 511 m 187 933 q 247 952 204 939 q 374 965 291 965 q 507 924 457 965 q 544 802 557 883 q 428 644 531 702 q 505 596 478 633 q 522 489 531 559 q 434 334 506 381 q 259 287 363 287 q 150 304 189 287 q 78 337 87 328 l 128 435 q 171 412 135 428 q 256 396 207 396 q 378 496 365 396 q 358 561 383 541 q 297 581 333 581 q 240 581 261 581 q 211 580 219 580 l 226 680 l 259 680 q 330 687 311 680 q 370 717 348 694 q 400 778 393 739 q 315 854 415 854 q 239 844 274 854 q 196 831 204 833 l 187 933 z "},"Ä":{"ha":726,"x_min":31,"x_max":707,"o":"m 463 676 q 433 596 450 644 q 396 494 417 548 q 355 381 376 439 q 311 267 333 322 l 493 267 q 483 381 489 322 q 474 494 478 439 q 467 596 470 548 q 463 676 463 644 m 383 841 l 596 841 l 707 0 l 520 0 l 504 146 l 269 146 l 209 0 l 31 0 l 383 841 z "},"Å":{"ha":722,"x_min":31,"x_max":707,"o":"m 463 676 q 433 596 450 644 q 396 494 417 548 q 355 381 376 439 q 311 267 333 322 l 493 267 q 483 381 489 322 q 474 494 478 439 q 467 596 470 548 q 463 676 463 644 m 383 841 l 596 841 l 707 0 l 520 0 l 504 146 l 269 146 l 209 0 l 31 0 l 383 841 z "},"Ç":{"ha":680,"x_min":31,"x_max":656,"o":"m 343 4 q 332 -18 341 -6 q 328 -46 324 -30 q 343 -56 328 -50 q 371 -72 357 -63 q 396 -96 385 -81 q 417 -181 426 -135 q 361 -275 407 -244 q 250 -306 315 -306 q 185 -293 207 -306 l 152 -272 q 139 -263 143 -267 l 183 -196 q 206 -211 191 -200 q 244 -222 220 -222 q 302 -176 294 -222 q 290 -149 304 -159 q 258 -131 276 -139 q 228 -115 241 -122 q 224 -93 215 -107 l 267 4 l 343 4 m 248 419 q 256 196 226 265 q 393 122 289 122 q 479 135 439 122 q 539 154 519 148 q 541 87 541 120 q 544 20 541 54 q 441 -9 498 2 q 343 -20 383 -20 q 101 87 170 -20 q 63 419 31 194 q 194 750 94 644 q 467 856 294 856 q 570 844 524 856 q 632 826 617 833 q 656 817 648 819 l 613 683 q 556 702 593 689 q 478 715 520 715 q 317 642 367 715 q 248 419 267 569 z "},"É":{"ha":626,"x_min":31,"x_max":604,"o":"m 31 0 l 150 841 l 604 841 l 581 696 l 309 696 l 281 502 l 489 502 l 470 367 l 261 367 l 230 144 l 506 144 l 487 0 l 31 0 z "},"Ñ":{"ha":737,"x_min":31,"x_max":730,"o":"m 309 841 l 500 313 l 502 313 q 511 406 506 324 l 572 841 l 730 841 l 611 0 l 454 0 l 257 530 q 254 491 256 517 q 246 435 252 465 l 187 0 l 31 0 l 150 841 l 309 841 m 557 1081 q 648 1126 604 1081 l 707 1076 q 680 1043 696 1063 q 641 1004 663 1022 q 539 956 591 956 q 465 974 493 956 q 385 1007 407 1007 q 348 1003 363 1007 q 320 989 333 998 q 283 961 289 970 l 228 1019 q 257 1051 241 1031 q 296 1089 274 1070 q 400 1135 348 1135 q 470 1116 437 1135 q 520 1089 504 1096 q 557 1081 537 1081 z "},"×":{"ha":822,"x_min":7,"x_max":730,"o":"m 730 730 q 483 372 596 533 l 639 0 l 435 0 q 402 96 420 30 l 372 204 q 356 267 361 243 q 322 203 343 243 q 280 122 302 163 q 207 0 241 52 l 7 0 l 267 378 l 122 730 l 330 730 q 343 681 333 715 q 363 607 352 646 q 394 476 387 511 l 404 494 q 449 578 420 524 q 493 659 478 631 q 518 707 507 687 q 530 730 528 728 l 730 730 z "},"÷":{"ha":596,"x_min":31,"x_max":572,"o":"m 550 317 l 31 317 l 52 450 l 572 450 l 550 317 m 283 252 q 346 223 322 252 q 363 146 370 194 q 324 69 356 98 q 254 41 293 41 q 191 69 215 41 q 174 146 167 98 q 213 223 181 194 q 283 252 244 252 m 435 665 q 394 587 426 615 q 325 559 363 559 q 264 587 287 559 q 248 663 241 615 q 285 741 256 711 q 354 770 315 770 q 417 741 393 770 q 435 665 441 711 z "},"Ȕ":{"ha":48,"x_min":0,"x_max":0,"o":""},"Ȝ":{"ha":39,"x_min":0,"x_max":0,"o":""},"ॐ":{"ha":1250,"x_min":54,"x_max":1157,"o":"m 639 1144 l 717 1065 l 639 989 l 561 1070 l 639 1144 m 457 1022 q 620 933 526 933 q 781 1022 715 933 l 881 939 q 680 833 783 833 q 420 996 530 833 l 457 1022 m 815 620 q 856 524 856 600 l 856 393 q 939 257 856 257 q 1056 322 1009 257 q 1102 486 1102 389 q 1059 644 1102 583 q 950 706 1017 706 q 815 620 857 706 m 94 541 q 228 216 128 341 q 459 91 328 91 q 578 141 528 91 q 626 265 626 189 q 519 507 626 394 q 387 393 467 430 l 335 517 q 509 681 509 569 q 404 769 509 769 q 239 722 328 769 l 189 844 q 337 880 269 880 q 500 815 437 880 q 563 644 563 750 q 546 561 563 606 l 569 541 q 756 635 665 635 q 767 635 761 635 q 781 633 772 635 q 963 813 811 813 q 1157 496 1157 813 q 1097 240 1157 333 q 933 146 1037 146 q 831 193 861 146 q 800 348 800 239 l 800 404 q 746 504 800 504 q 631 456 698 504 q 726 207 726 330 q 663 50 726 109 q 494 -9 600 -9 q 198 143 328 -9 q 54 530 76 285 l 94 541 z "},"।":{"ha":433,"x_min":141,"x_max":341,"o":"m 341 794 q 280 78 335 739 l 141 78 l 198 794 l 341 794 z "},"॥":{"ha":887,"x_min":141,"x_max":794,"o":"m 341 794 q 280 78 335 739 l 141 78 l 198 794 l 341 794 m 794 794 l 735 78 l 596 78 l 654 794 l 794 794 z "},"ఁ":{"ha":502,"x_min":-6,"x_max":409,"o":"m 324 0 q 78 87 161 0 q 6 320 -6 174 q 117 556 19 467 q 372 644 215 644 q 409 597 409 644 q 369 550 409 550 q 234 487 287 550 q 173 321 181 424 q 206 157 165 219 q 337 96 248 96 q 372 57 372 96 q 358 18 372 35 q 324 0 344 0 z "},"ం":{"ha":811,"x_min":-9,"x_max":719,"o":"m 528 320 q 495 487 535 424 q 369 550 456 550 q 229 487 281 550 q 169 321 176 424 q 204 157 161 219 q 335 96 246 96 q 528 320 509 96 m 698 320 q 583 89 687 174 q 317 0 478 0 q 73 87 156 0 q 2 320 -9 174 q 112 556 15 467 q 367 644 209 644 q 698 320 719 644 z "},"ః":{"ha":528,"x_min":-6,"x_max":435,"o":"m 204 74 q 249 159 241 74 q 211 244 257 244 q 164 159 170 244 q 204 74 157 74 m 230 409 q 275 494 269 409 q 239 580 281 580 q 193 494 200 580 q 230 409 185 409 m 57 37 q 2 157 -6 80 q 72 273 9 235 q 214 311 135 311 q 351 273 293 311 q 401 156 409 235 q 331 39 393 78 q 189 0 269 0 q 57 37 109 0 m 431 496 q 356 374 424 415 q 217 337 296 337 q 80 378 137 337 q 28 495 22 419 q 104 613 33 572 q 241 650 163 650 q 377 610 319 650 q 431 496 435 570 z "},"అ":{"ha":887,"x_min":-13,"x_max":794,"o":"m 287 537 q 256 613 291 613 q 198 519 207 613 q 231 430 193 430 q 287 537 280 430 m 785 415 q 641 100 770 215 q 372 0 528 0 q 89 104 187 0 q 1 378 -13 207 q 96 630 15 548 q 252 696 163 696 q 381 653 341 696 q 415 530 420 609 q 361 401 409 450 q 246 352 313 352 q 141 393 180 352 q 139 370 139 381 l 139 352 q 363 109 139 109 q 641 367 598 109 q 648 538 661 487 q 609 589 635 589 q 552 474 561 589 q 544 396 550 417 q 567 352 544 352 l 559 244 l 183 244 l 189 337 l 467 337 q 424 481 417 398 q 489 644 430 581 q 611 696 541 696 q 752 611 709 696 q 785 415 794 526 z "},"ఆ":{"ha":889,"x_min":0,"x_max":796,"o":"m 613 419 q 656 515 648 419 q 624 611 663 611 q 575 515 581 611 q 613 419 569 419 m 206 517 q 245 424 202 424 q 295 521 289 424 q 258 619 302 619 q 206 517 215 619 m 150 393 q 143 320 143 352 q 385 93 143 93 q 556 154 483 93 q 617 298 630 215 q 568 254 604 276 q 496 231 531 231 l 189 231 l 196 330 l 511 330 q 574 344 559 330 q 481 393 493 380 q 437 526 430 431 q 626 691 448 691 q 785 526 796 691 q 711 383 778 422 q 755 336 739 372 q 767 257 770 300 q 607 46 754 111 q 381 -2 506 -2 q 0 339 0 -2 q 61 578 0 481 q 274 683 131 683 q 415 600 385 683 q 422 533 424 572 q 366 395 415 443 q 259 348 317 348 q 176 367 202 348 l 150 393 z "},"ఇ":{"ha":874,"x_min":-7,"x_max":781,"o":"m 541 217 q 328 296 472 296 q 235 274 276 296 q 183 202 185 248 q 326 93 174 93 q 541 217 478 93 m 109 339 q 337 378 196 378 q 581 326 478 378 q 593 411 589 365 q 524 565 604 565 q 478 537 496 565 q 456 472 459 509 l 456 439 l 307 439 l 309 480 q 289 544 313 519 q 237 570 265 570 q 163 480 169 570 q 172 419 157 441 l 15 419 q 33 543 2 470 q 243 663 83 663 q 391 598 356 663 q 535 665 433 665 q 693 604 637 665 q 739 419 748 539 q 693 243 733 324 q 772 20 781 144 q 769 0 770 9 q 765 -17 769 -9 l 600 -17 q 606 2 604 -9 q 611 31 607 13 q 604 115 613 52 q 320 -2 483 -2 q 96 46 183 -2 q 0 198 -7 102 q 109 339 7 294 z "},"ఈ":{"ha":1294,"x_min":0,"x_max":1202,"o":"m 285 289 q 454 96 278 96 q 644 289 619 96 l 285 289 m 1061 207 q 985 289 1067 289 q 939 206 943 263 q 996 96 930 96 q 1061 207 1054 96 m 650 393 q 478 561 641 559 l 413 554 q 296 393 320 522 l 650 393 m 1193 202 q 1127 67 1189 128 q 977 6 1065 6 q 849 61 889 6 q 813 198 809 117 q 856 289 819 257 l 796 289 q 657 59 765 131 q 431 -2 569 -2 q 204 70 293 -2 q 111 289 109 150 l 0 289 l 7 393 l 126 393 q 246 578 152 517 q 157 650 167 613 q 157 728 144 693 l 333 728 q 330 707 330 719 q 413 639 330 644 q 469 644 456 644 l 474 644 q 548 698 515 656 l 613 780 q 767 843 680 843 q 831 833 811 843 l 826 756 q 793 763 819 763 q 715 715 752 763 q 643 622 646 624 q 804 393 800 561 l 1000 393 q 1044 467 1041 424 q 1023 532 1046 509 q 965 552 1000 556 q 920 537 937 552 q 878 506 891 513 l 881 598 q 1005 639 931 639 q 1119 604 1078 639 q 1165 498 1170 565 q 1124 372 1159 431 q 1193 202 1202 333 z "},"ఉ":{"ha":919,"x_min":0,"x_max":826,"o":"m 685 352 q 651 406 687 406 q 612 346 615 406 q 644 287 609 287 q 685 352 680 287 m 69 287 q 72 361 69 320 l 0 361 l 6 463 l 98 463 q 243 637 133 570 q 467 704 352 704 q 713 633 630 704 q 770 522 776 581 l 619 522 q 607 552 615 530 q 457 626 583 626 q 244 463 315 626 l 457 463 l 450 361 l 219 361 q 215 315 215 350 l 215 250 q 289 100 215 100 q 352 194 344 100 l 359 278 l 491 278 l 487 209 q 574 96 478 96 q 681 224 665 96 q 602 209 648 209 q 520 243 556 209 q 487 348 480 278 q 540 447 491 415 q 654 480 589 480 q 813 278 826 480 q 730 78 806 163 q 557 -2 656 -2 q 472 12 498 -2 q 409 70 446 26 q 259 0 341 0 q 69 287 69 0 m 469 728 q 404 878 404 806 q 484 959 411 959 q 552 867 557 959 q 469 728 548 828 z "},"ఊ":{"ha":1331,"x_min":0,"x_max":1239,"o":"m 219 380 q 207 274 207 285 q 298 102 207 102 q 363 215 357 102 l 369 296 l 498 296 l 493 215 q 567 89 480 89 q 644 135 609 89 q 683 215 674 170 q 664 203 674 209 q 622 196 654 196 q 541 228 576 196 q 524 380 487 285 l 219 380 m 1094 291 q 1039 380 1102 380 q 998 289 1002 344 q 1043 202 991 202 q 1094 291 1085 202 m 698 328 q 667 380 700 380 q 635 326 639 380 q 664 276 635 276 q 698 328 693 276 m 1230 281 q 1174 165 1224 215 q 1022 109 1115 109 q 880 291 869 109 q 913 380 885 346 l 811 380 q 826 280 828 331 q 738 77 817 156 q 559 -2 659 -2 q 480 15 507 -2 q 426 72 463 26 q 284 0 370 0 q 148 56 198 0 q 74 296 74 131 q 78 359 74 326 l 80 380 l 0 380 l 6 470 l 102 470 q 237 635 141 572 q 482 698 333 698 q 719 644 631 698 q 789 517 793 593 l 626 517 q 472 633 628 633 q 246 470 317 633 l 1063 470 q 1094 539 1089 494 q 1035 611 1098 611 q 1011 609 1019 611 l 985 604 l 941 581 l 946 667 q 1076 698 1004 698 q 1211 550 1222 698 q 1157 450 1206 480 q 1230 281 1239 396 m 470 846 q 394 707 467 802 q 324 856 320 793 q 404 943 330 943 q 470 846 478 943 m 646 846 q 572 707 644 802 q 502 856 498 789 q 581 943 507 943 q 646 846 654 943 z "},"ఋ":{"ha":1520,"x_min":-22,"x_max":1428,"o":"m 578 520 q 523 557 550 557 q 474 544 496 557 l 480 639 q 513 644 500 644 l 543 644 q 700 561 639 644 q 754 337 767 474 q 674 93 746 187 q 480 -2 602 -2 q 369 76 393 -2 q 296 19 346 39 q 191 -2 246 -2 q 48 54 102 -2 q 9 285 -20 124 q 81 363 17 330 q 155 381 104 374 q 237 406 206 387 q 276 480 272 430 q 224 556 280 556 q 186 533 204 556 q 165 483 169 511 l 165 415 l 6 415 q 7 474 4 430 q 83 598 20 552 q 243 644 146 644 q 424 472 435 644 q 369 364 420 404 q 260 317 317 324 q 187 281 204 309 q 167 205 170 254 q 180 128 163 156 q 230 91 196 91 q 306 198 296 91 l 309 256 l 437 256 l 433 202 q 448 130 430 159 q 498 100 467 100 q 589 213 557 100 q 611 384 611 298 q 578 520 611 470 m 730 409 q 750 298 730 404 l 748 204 q 828 107 754 107 q 933 324 917 107 q 935 359 935 343 l 935 393 q 843 563 935 563 q 819 557 824 561 q 800 550 813 554 l 806 643 q 840 646 824 644 q 869 648 856 648 q 1098 361 1098 648 q 1096 281 1098 304 q 1087 183 1087 219 q 1157 107 1087 107 q 1263 359 1250 107 q 1265 393 1265 376 q 1169 563 1265 563 q 1142 555 1148 561 q 1126 543 1135 548 l 1133 643 q 1166 646 1150 644 q 1196 648 1181 648 q 1428 361 1428 648 l 1428 337 q 1426 309 1428 322 q 1344 81 1415 161 q 1164 0 1272 0 q 1022 87 1056 0 q 833 0 950 0 q 696 63 743 0 q 665 148 667 104 l 730 409 z "},"ఌ":{"ha":1011,"x_min":-17,"x_max":919,"o":"m 833 -243 q 561 -413 733 -367 q 419 -431 493 -431 q 283 -412 344 -431 q 172 -356 222 -393 q 61 -172 61 -276 q 163 26 61 -54 q 341 111 222 72 q 450 153 396 131 q 546 204 504 174 q 641 377 641 272 q 613 516 641 481 q 541 550 585 550 q 481 507 506 550 q 457 422 461 472 l 456 380 l 304 380 l 307 431 q 293 518 309 478 q 239 557 276 557 q 182 534 202 557 q 156 478 163 511 q 163 356 137 411 l 2 356 q 52 570 -17 478 q 226 663 120 663 q 327 640 285 663 q 387 576 369 617 q 548 663 431 663 q 735 578 669 663 q 793 397 793 506 q 756 226 793 289 q 661 119 720 163 q 522 44 602 76 q 377 -12 443 13 q 289 -58 311 -37 q 256 -100 267 -80 q 243 -163 243 -128 q 259 -224 243 -198 q 300 -270 276 -250 q 406 -313 354 -313 q 646 -252 544 -313 q 709 -200 687 -226 q 746 -154 731 -174 q 777 -93 761 -133 q 800 -11 793 -52 q 780 87 815 87 l 780 209 q 869 162 835 209 q 910 45 902 115 q 900 -103 919 -24 q 833 -243 881 -181 z "},"ఎ":{"ha":813,"x_min":-6,"x_max":720,"o":"m 200 96 q 254 201 246 96 q 213 306 261 306 q 150 201 154 306 q 200 96 146 96 m 720 406 l 719 348 q 619 87 704 176 q 415 -2 535 -2 q 307 43 341 -2 q 169 -2 246 -2 q 48 43 93 -2 q 2 196 -6 93 q 137 376 13 326 q 215 391 174 391 q 389 198 404 391 q 383 170 389 189 q 395 109 383 122 q 437 96 407 96 q 550 341 533 96 q 552 369 552 354 l 552 396 q 456 650 552 589 q 317 659 424 669 l 320 726 q 402 730 356 730 q 602 698 548 730 q 720 406 720 635 z "},"ఏ":{"ha":813,"x_min":-6,"x_max":720,"o":"m 202 96 q 254 201 246 96 q 213 306 261 306 q 150 201 154 306 q 202 96 146 96 m 720 406 l 719 348 q 619 87 704 176 q 415 -2 535 -2 q 307 43 341 -2 q 169 -2 246 -2 q 48 43 93 -2 q 2 196 -6 93 q 137 376 13 326 q 215 391 174 391 q 389 198 404 391 q 383 170 389 189 q 395 109 383 122 q 437 96 407 96 q 550 341 533 96 q 552 369 552 354 l 552 396 q 456 650 552 589 q 317 659 424 669 l 320 726 q 602 698 552 726 q 720 406 720 631 m 467 813 l 417 815 q 278 769 328 815 q 202 550 189 687 l 56 550 q 74 681 46 594 q 269 870 119 824 q 365 887 326 887 l 426 887 q 472 885 446 887 l 467 813 z "},"ఐ":{"ha":856,"x_min":-6,"x_max":763,"o":"m 206 89 q 257 181 250 89 q 213 272 265 272 q 163 172 169 272 q 206 89 154 89 m 707 126 q 478 0 628 0 q 357 57 404 0 q 200 0 291 0 q 57 43 109 0 q 2 180 -6 91 q 73 320 9 269 q 226 372 137 372 q 422 183 435 372 l 420 174 q 476 91 424 91 q 596 315 581 91 q 602 409 602 372 q 519 561 602 561 q 441 469 446 561 l 437 431 l 291 431 l 293 459 q 289 526 296 507 q 237 554 276 554 q 181 528 198 554 q 163 477 163 502 q 161 419 163 452 l 7 419 q 85 594 15 530 q 232 652 143 652 q 383 570 322 652 q 544 652 433 652 q 719 561 656 652 q 763 378 763 493 q 707 126 763 215 z "},"ఒ":{"ha":819,"x_min":-17,"x_max":726,"o":"m 726 244 q 489 0 726 0 q 393 24 424 0 l 346 70 l 298 26 q 183 0 257 0 q 2 215 -17 0 q 69 350 9 300 q 194 393 124 393 q 300 480 291 393 q 248 556 307 556 q 204 537 220 556 q 183 433 167 496 l 11 433 q 81 587 19 530 q 244 644 143 644 q 446 472 457 644 q 378 348 441 389 q 280 320 333 320 q 193 289 226 320 q 156 206 159 257 q 210 96 146 96 q 281 215 274 96 l 287 259 l 424 259 l 422 206 q 487 91 415 91 q 550 137 524 91 q 576 215 572 172 q 563 289 580 257 l 722 289 q 726 244 726 265 z "},"ఓ":{"ha":837,"x_min":4,"x_max":744,"o":"m 743 207 q 509 0 730 0 q 411 24 444 0 l 365 70 l 319 26 q 204 0 278 0 q 20 215 4 0 q 85 346 28 300 q 215 393 143 393 q 320 480 309 393 q 267 556 326 556 q 222 537 239 556 q 204 433 183 494 l 30 433 q 89 574 37 519 q 222 643 141 630 l 222 656 q 224 676 222 665 q 387 831 237 831 q 487 781 446 831 l 487 644 q 398 720 446 720 q 341 665 346 720 q 344 635 341 650 q 467 472 476 606 q 396 348 459 389 q 298 320 352 320 q 211 289 244 320 q 174 206 178 257 q 229 96 165 96 q 300 215 293 96 l 306 259 l 444 259 l 441 206 q 506 91 433 91 q 568 131 543 91 q 595 215 593 172 q 581 289 598 257 l 741 289 q 744 244 744 265 q 743 207 744 224 z "},"ఔ":{"ha":996,"x_min":6,"x_max":904,"o":"m 750 559 q 713 631 756 631 q 667 556 674 631 q 707 487 663 487 q 750 559 746 487 m 709 707 q 781 683 744 707 q 707 737 781 737 l 485 737 q 494 687 498 719 q 420 606 489 635 q 467 472 476 559 q 300 320 456 320 q 214 289 246 320 q 178 206 181 257 q 230 96 169 96 q 304 215 294 96 l 307 259 l 446 259 l 444 206 q 509 91 435 91 q 568 131 543 91 q 595 216 593 172 q 581 289 598 259 l 744 289 q 744 206 748 239 q 511 0 730 0 q 413 26 448 0 l 367 70 l 320 26 q 206 0 278 0 q 22 215 6 0 q 89 350 30 300 q 215 393 144 393 q 320 478 313 393 q 269 556 328 556 q 219 532 235 556 q 200 493 202 509 q 204 431 196 463 l 31 431 q 102 587 39 530 q 265 644 165 644 q 320 644 293 644 q 352 687 350 659 q 313 737 354 730 l 69 737 l 74 824 l 761 824 q 863 770 822 824 q 896 635 904 717 q 681 419 880 419 q 567 463 606 419 q 532 570 528 507 q 589 670 537 633 q 709 707 641 707 z "},"క":{"ha":819,"x_min":15,"x_max":726,"o":"m 356 407 l 411 409 l 467 409 q 604 369 552 409 q 662 217 669 320 q 535 50 656 113 q 339 -2 437 -2 q 70 89 161 -2 q 22 261 15 146 l 209 261 q 219 163 204 206 q 300 100 241 119 q 339 93 320 93 q 452 126 407 93 q 498 202 496 159 q 361 320 506 320 q 326 318 357 320 q 223 311 294 315 q 94 345 152 307 q 44 468 37 383 q 140 598 50 552 q 344 644 230 644 q 661 452 674 644 l 502 452 q 487 513 506 494 q 356 550 452 550 q 224 472 230 550 q 356 407 219 407 m 265 841 q 252 748 252 793 q 309 656 252 663 q 369 680 343 650 l 470 835 q 580 891 515 891 q 624 887 602 891 q 682 759 641 837 q 726 681 724 681 q 639 696 680 696 q 472 635 552 696 q 380 567 426 604 q 300 552 333 552 q 217 567 261 552 q 111 730 100 624 l 265 841 z "},"ఖ":{"ha":870,"x_min":9,"x_max":781,"o":"m 228 93 q 301 192 293 93 q 244 291 309 291 q 172 189 178 291 q 228 93 163 93 m 372 56 q 407 -143 474 -83 q 361 -163 385 -163 q 289 -89 283 -163 q 372 56 293 -26 m 330 344 q 341 435 341 389 q 259 559 341 559 q 198 507 215 559 q 189 419 191 483 l 28 419 q 49 519 31 476 q 83 578 67 561 q 272 644 156 644 q 476 396 476 644 q 472 344 476 374 q 466 286 469 313 q 459 243 463 259 q 524 111 456 111 q 641 341 622 111 q 620 474 644 413 q 544 546 593 546 q 483 530 531 546 l 489 631 q 522 641 507 639 q 552 644 537 643 q 739 544 685 644 q 774 337 781 467 q 643 46 757 130 q 506 0 581 0 q 431 23 469 0 q 380 87 394 46 q 191 0 298 0 q 61 56 111 0 q 15 194 9 107 q 219 383 28 383 q 330 344 278 383 z "},"గ":{"ha":843,"x_min":-11,"x_max":750,"o":"m 693 324 l 691 269 q 596 -2 680 143 l 431 -2 q 472 72 457 31 q 526 293 519 176 q 380 550 543 550 q 244 477 296 550 q 181 263 191 404 q 180 235 180 248 q 235 0 180 85 l 57 -2 q 2 268 -11 120 q 93 517 15 415 q 361 644 189 644 q 693 324 693 644 m 289 841 q 276 748 276 789 q 331 656 276 665 q 393 680 369 650 l 496 835 q 604 891 541 891 q 650 887 626 891 q 706 759 663 837 q 750 681 748 681 q 665 696 707 696 q 498 635 578 696 q 450 600 474 619 q 315 552 383 552 q 243 567 281 552 q 135 730 124 624 l 289 841 z "},"ఘ":{"ha":1337,"x_min":7,"x_max":1244,"o":"m 313 209 q 306 306 317 274 q 263 337 294 337 q 189 214 198 337 q 242 91 180 91 q 313 209 304 91 m 785 572 q 854 320 865 474 q 745 82 843 167 q 526 -2 648 -2 q 394 61 437 -2 q 219 0 326 0 q 60 58 113 0 q 16 217 7 117 q 98 370 24 317 q 270 424 172 424 q 423 373 369 424 q 470 226 478 322 q 469 209 470 217 q 533 98 465 98 q 635 163 589 98 q 689 320 685 228 q 663 474 696 398 q 561 548 626 548 l 569 644 l 615 644 q 721 624 683 644 q 785 572 759 604 m 393 41 q 431 -165 509 -93 q 372 -189 406 -189 q 314 -164 339 -189 q 291 -102 289 -139 q 393 41 296 -37 m 670 748 q 585 765 613 765 q 456 719 513 765 q 383 648 417 685 q 319 587 350 611 q 207 550 269 550 q 136 567 172 550 q 76 623 100 583 q 52 719 52 663 q 194 830 111 769 q 178 707 178 722 q 250 656 178 644 q 280 676 267 659 q 389 852 313 719 q 445 917 415 893 q 506 941 476 941 q 554 937 535 941 q 611 850 587 891 q 651 783 635 809 q 670 748 667 757 m 1244 359 l 1243 307 q 1141 67 1233 159 q 946 -22 1057 -22 q 834 23 876 -22 q 783 152 793 69 l 796 333 q 822 325 813 330 q 840 317 831 320 q 852 309 848 313 l 844 187 q 848 161 844 170 q 934 104 872 104 q 1049 165 996 104 q 1111 320 1102 226 l 1113 369 q 987 561 1113 561 l 954 556 l 944 554 l 950 657 q 998 663 970 663 q 1154 611 1094 663 q 1244 359 1244 533 z "},"ఙ":{"ha":837,"x_min":4,"x_max":744,"o":"m 678 430 l 444 430 l 450 537 l 535 537 l 543 646 l 628 646 l 619 537 l 685 537 l 678 430 m 743 207 q 509 0 730 0 q 411 24 444 0 l 365 70 l 319 26 q 204 0 278 0 q 20 215 4 0 q 85 346 28 300 q 215 393 143 393 q 320 480 309 393 q 267 556 326 556 q 222 537 239 556 q 204 433 183 494 l 30 433 q 100 587 37 530 q 263 644 163 644 q 467 472 478 644 q 396 348 459 389 q 298 320 352 320 q 211 289 244 320 q 174 206 178 257 q 229 96 165 96 q 300 215 293 96 l 306 259 l 444 259 l 441 206 q 506 91 433 91 q 568 131 543 91 q 595 215 593 172 q 581 289 598 257 l 741 289 q 744 244 744 265 q 743 207 744 224 z "},"చ":{"ha":952,"x_min":26,"x_max":859,"o":"m 843 315 q 750 78 831 169 q 668 19 711 35 q 578 0 624 2 q 499 16 531 -2 q 437 74 467 33 q 374 24 394 37 q 279 0 328 0 q 191 17 230 0 q 126 61 152 33 q 72 215 65 124 q 111 320 78 278 q 185 374 144 363 l 26 374 l 31 469 l 404 469 l 394 361 l 354 361 q 239 215 248 361 q 300 93 230 93 q 351 128 330 93 q 378 206 372 163 l 383 256 l 511 256 l 509 209 q 544 107 502 144 q 578 96 557 96 q 693 272 667 96 q 698 357 698 311 q 561 556 698 557 q 513 554 537 554 l 435 554 q 404 593 402 554 q 441 644 407 644 l 565 644 q 743 593 672 643 q 843 315 856 509 m 381 830 q 365 707 365 722 q 404 656 365 661 q 463 680 441 648 q 489 733 476 707 l 561 863 q 704 941 620 941 q 741 937 722 941 q 804 828 759 915 q 859 748 844 754 q 780 765 815 765 q 644 719 711 765 q 598 678 624 700 q 549 629 572 656 q 512 588 526 602 q 481 567 498 574 q 403 552 452 552 q 324 567 354 552 q 241 719 244 604 l 381 830 z "},"ఛ":{"ha":952,"x_min":26,"x_max":859,"o":"m 433 46 q 474 -159 548 -87 q 414 -183 448 -183 q 355 -158 380 -183 q 333 -100 330 -133 q 433 46 337 -39 m 843 315 q 750 78 831 169 q 668 19 711 35 q 578 0 624 2 q 499 16 531 -2 q 437 74 467 33 q 374 24 394 37 q 279 0 328 0 q 191 17 230 0 q 126 61 152 33 q 72 215 65 124 q 111 320 78 278 q 185 374 144 363 l 26 374 l 31 469 l 404 469 l 394 361 l 354 361 q 239 215 248 361 q 300 93 230 93 q 351 128 330 93 q 378 206 372 163 l 383 256 l 511 256 l 509 209 q 544 107 502 144 q 578 96 557 96 q 693 272 667 96 q 698 357 698 311 q 561 556 698 557 q 513 554 537 554 l 435 554 q 404 593 402 554 q 441 644 407 644 l 565 644 q 743 593 672 643 q 843 315 856 509 m 381 830 q 365 707 365 722 q 404 656 365 661 q 463 680 441 648 q 489 733 476 707 l 561 863 q 704 941 620 941 q 741 937 722 941 q 804 828 759 915 q 859 748 844 754 q 780 765 815 765 q 644 719 711 765 q 598 678 624 700 q 549 629 572 656 q 512 588 526 602 q 481 567 498 574 q 403 552 452 552 q 324 567 354 552 q 241 719 244 604 l 381 830 z "},"జ":{"ha":861,"x_min":9,"x_max":769,"o":"m 259 565 q 193 439 180 565 l 30 439 q 78 580 37 517 q 274 670 144 670 q 403 622 354 670 q 450 491 452 574 q 530 431 472 433 q 581 452 557 430 q 608 507 604 474 q 597 569 613 541 q 556 598 581 598 q 493 570 513 598 l 498 663 q 602 680 541 680 q 712 636 663 680 q 756 528 761 593 q 719 415 752 463 q 546 339 661 339 q 426 406 474 339 q 298 333 383 333 q 206 296 246 333 q 163 206 167 259 q 237 100 156 100 q 292 128 269 100 q 319 196 315 156 l 322 263 l 474 263 l 467 187 q 533 91 459 91 q 624 215 617 91 q 593 324 630 250 l 754 324 q 763 226 769 281 q 686 60 757 122 q 509 -2 615 -2 q 378 72 404 -2 q 317 22 369 46 q 213 2 267 2 q 62 61 115 2 q 18 232 9 120 q 131 387 26 344 q 188 398 161 393 q 244 407 215 404 q 312 494 307 424 q 259 565 317 565 z "},"ఝ":{"ha":1472,"x_min":13,"x_max":1380,"o":"m 550 320 q 519 483 557 424 q 391 550 478 550 q 251 487 304 550 q 191 321 198 424 q 226 157 183 219 q 357 96 269 96 q 550 320 531 96 m 719 320 q 606 88 711 176 q 339 0 500 0 q 95 87 178 0 q 24 320 13 174 q 134 556 37 467 q 389 644 231 644 q 719 320 741 644 m 317 841 q 304 748 304 793 q 359 656 304 665 q 420 680 394 650 l 522 835 q 630 891 567 891 q 676 887 654 891 q 735 756 689 837 q 778 681 774 681 q 689 696 731 696 q 524 635 604 696 q 477 601 500 619 q 430 567 454 583 q 354 552 387 552 q 269 567 307 552 q 163 730 152 624 l 317 841 m 1380 307 q 1295 77 1367 157 q 1116 -4 1224 -4 q 972 83 1007 -4 q 787 -4 902 -4 q 669 37 719 -4 q 615 144 619 76 l 681 406 q 690 396 683 402 q 704 381 696 391 q 719 340 719 359 q 717 284 719 320 q 719 208 715 248 q 737 136 724 169 q 781 104 750 104 q 885 320 867 104 q 887 356 887 341 l 887 391 q 793 561 887 561 q 750 554 750 554 l 757 639 q 820 644 789 644 q 1052 359 1052 644 q 1046 272 1052 317 q 1039 181 1039 213 q 1109 104 1039 104 q 1215 356 1200 104 q 1215 389 1215 372 q 1120 561 1215 561 q 1080 554 1085 554 l 1085 639 q 1148 644 1111 644 q 1380 359 1380 644 q 1380 307 1380 333 m 981 46 q 1020 -159 1093 -93 q 961 -183 994 -183 q 902 -158 928 -183 q 880 -96 876 -133 q 981 46 885 -33 z "},"ఞ":{"ha":1052,"x_min":15,"x_max":959,"o":"m 563 217 q 350 296 494 296 q 257 274 298 296 q 204 202 207 248 q 345 89 196 89 q 563 217 494 89 m 131 339 q 359 378 219 378 q 604 326 500 378 q 613 411 611 365 q 546 565 624 565 q 500 537 519 565 q 478 472 481 509 l 478 439 l 330 439 l 331 480 q 311 544 335 519 q 259 570 287 570 q 183 480 191 570 q 194 419 180 441 l 37 419 q 56 543 24 470 q 265 663 106 663 q 413 598 378 663 q 557 665 456 665 q 715 604 659 665 q 761 419 770 539 q 715 243 756 324 q 794 20 802 144 q 792 0 793 9 q 787 -17 791 -9 l 622 -17 l 626 2 q 633 66 637 41 q 624 115 630 91 q 341 -2 506 -2 q 119 46 206 -2 q 22 198 15 102 q 131 339 30 294 m 952 419 l 719 419 l 724 526 l 809 526 l 817 635 l 902 635 l 893 526 l 959 526 l 952 419 z "},"ట":{"ha":887,"x_min":11,"x_max":794,"o":"m 320 480 q 285 570 326 570 q 241 541 257 570 q 226 422 206 476 q 261 391 237 391 q 302 418 285 391 q 320 480 319 444 m 543 550 q 478 533 519 550 l 487 644 l 530 644 q 691 611 641 644 q 794 388 794 543 q 735 128 794 233 q 519 -2 661 -2 q 435 22 467 -2 q 383 89 417 37 q 326 20 350 33 q 220 0 289 0 q 70 93 131 0 q 20 314 11 185 q 91 537 30 443 q 274 646 165 646 q 431 483 446 646 q 378 356 426 402 q 277 311 330 311 q 206 322 224 311 q 167 361 196 330 q 156 241 156 317 q 246 98 156 98 q 341 207 331 98 l 344 280 l 474 280 l 470 220 q 539 93 463 93 q 643 320 624 93 q 644 354 644 339 q 644 383 644 369 q 543 550 644 550 m 283 893 q 302 893 283 893 q 341 864 320 893 q 359 800 361 835 q 276 657 354 744 q 202 804 193 741 q 225 867 204 841 q 283 893 246 893 z "},"ఠ":{"ha":857,"x_min":-9,"x_max":765,"o":"m 528 320 q 495 487 535 424 q 369 550 456 550 q 229 487 281 550 q 169 321 176 424 q 204 157 161 219 q 335 96 246 96 q 528 320 509 96 m 698 320 q 583 89 687 174 q 317 0 478 0 q 73 87 156 0 q 2 320 -9 174 q 112 556 15 467 q 367 644 209 644 q 698 320 719 644 m 363 409 q 419 381 396 409 q 438 313 441 352 q 409 245 435 274 q 350 217 383 217 q 294 245 317 217 q 275 314 272 274 q 304 381 278 354 q 363 409 330 409 m 304 841 q 291 748 291 776 q 346 656 291 665 q 407 680 383 650 l 509 835 q 619 891 554 891 q 665 887 641 891 q 719 764 676 846 q 765 681 761 681 q 678 696 719 696 q 511 635 591 696 q 417 574 467 604 q 341 552 372 552 q 257 567 296 552 q 152 730 137 624 l 304 841 z "},"డ":{"ha":935,"x_min":9,"x_max":843,"o":"m 654 293 q 624 383 661 383 q 593 325 596 383 q 624 267 589 267 q 650 285 643 267 q 654 293 652 289 m 781 272 q 689 69 772 146 q 515 -2 622 -2 q 393 96 407 -2 q 224 0 361 0 q 67 81 122 0 q 19 289 11 161 q 413 644 46 644 q 669 607 604 644 q 739 491 720 580 l 583 491 q 513 546 580 533 q 413 550 487 550 q 187 306 204 550 q 183 230 183 261 q 244 93 183 93 q 289 119 274 93 q 309 198 304 146 l 317 267 l 465 267 l 461 224 q 472 144 457 181 q 533 96 491 96 q 635 206 613 96 q 589 194 611 194 q 502 228 541 194 q 467 322 463 261 q 514 422 470 383 q 628 461 557 461 q 781 272 793 461 m 381 841 q 367 748 367 785 q 424 656 367 665 q 485 680 459 650 l 519 733 l 587 835 q 694 891 631 891 q 741 887 719 891 q 800 756 754 837 q 843 681 839 681 q 756 696 796 696 q 589 635 669 696 q 542 601 565 619 q 494 567 519 583 q 419 552 452 552 q 333 567 372 552 q 226 730 215 624 l 381 841 z "},"ఢ":{"ha":939,"x_min":9,"x_max":846,"o":"m 654 293 q 624 383 661 383 q 593 325 596 383 q 624 267 589 267 q 650 285 643 267 q 654 293 652 289 m 781 272 q 689 69 772 146 q 515 -2 622 -2 q 393 96 407 -2 q 224 0 361 0 q 67 81 122 0 q 19 289 11 161 q 413 644 46 644 q 669 607 604 644 q 739 491 720 580 l 583 491 q 513 546 580 533 q 413 550 487 550 q 187 306 204 550 q 183 230 183 261 q 244 93 183 93 q 289 119 274 93 q 309 198 304 146 l 317 267 l 465 267 l 461 224 q 472 144 457 181 q 533 96 491 96 q 635 206 613 96 q 589 194 611 194 q 502 228 541 194 q 467 322 463 261 q 514 422 470 383 q 628 461 557 461 q 781 272 793 461 m 457 -98 q 430 -159 456 -135 q 369 -183 404 -183 q 311 -158 335 -183 q 289 -96 287 -133 q 389 46 293 -33 q 457 -98 463 -39 m 385 841 q 372 748 372 776 q 428 656 372 665 q 489 680 465 650 l 593 835 q 698 891 635 891 q 746 887 722 891 q 802 759 759 837 q 846 681 844 681 q 759 696 802 696 q 593 635 676 696 q 498 567 539 594 q 422 552 456 552 q 339 567 374 552 q 231 730 220 624 l 385 841 z "},"ణ":{"ha":907,"x_min":-6,"x_max":815,"o":"m 613 189 q 554 281 624 281 q 487 174 493 281 q 541 96 487 96 q 589 107 578 96 q 613 189 611 126 m 415 565 q 589 644 476 644 q 815 365 815 644 l 815 341 q 813 319 815 330 q 698 65 802 150 q 520 0 620 0 q 407 35 454 0 q 343 206 335 85 q 413 331 348 278 q 539 383 478 383 q 667 326 624 383 q 670 389 670 359 q 565 550 670 550 q 459 456 467 550 l 456 381 l 330 380 l 331 437 q 258 550 339 550 q 172 456 178 550 q 192 395 169 417 q 246 374 215 374 l 278 374 l 270 283 l 222 283 q 168 255 189 280 q 146 188 146 230 q 174 119 146 146 q 242 94 202 94 q 317 119 281 93 l 309 37 q 199 0 289 0 q 59 43 109 0 q 2 206 -6 96 q 89 331 7 289 q 24 452 24 357 q 246 644 41 646 q 415 565 383 650 z "},"త":{"ha":883,"x_min":-6,"x_max":791,"o":"m 213 289 q 255 356 250 289 q 219 424 259 424 q 180 372 183 424 q 213 289 172 289 m 622 361 q 614 415 624 393 q 581 437 604 437 q 537 361 543 437 q 547 310 533 333 q 578 287 561 287 q 622 361 613 287 m 600 226 q 539 209 559 209 q 446 251 491 209 q 404 361 402 293 q 445 457 409 417 q 550 498 481 498 q 498 550 533 544 q 330 550 415 550 q 303 597 300 550 q 339 644 306 644 l 469 644 q 580 631 515 648 q 702 480 689 594 q 761 306 770 430 q 617 65 748 143 q 328 0 511 0 q 89 77 183 0 q 2 289 -6 154 q 74 448 9 385 q 227 509 139 509 q 354 467 315 509 q 388 358 393 424 q 339 250 383 293 q 233 207 294 207 q 180 226 200 207 q 224 133 167 172 q 374 93 278 93 q 600 226 541 93 m 311 828 q 298 707 298 709 q 335 656 298 659 q 393 678 372 648 q 406 701 400 691 q 422 731 413 711 l 494 861 q 635 939 550 939 q 672 935 654 939 q 732 832 689 913 q 791 746 776 752 q 709 763 748 763 q 576 717 644 763 q 527 672 548 691 q 478 630 506 654 q 406 570 437 591 q 330 550 374 550 q 256 565 285 550 q 172 719 174 604 l 311 828 z "},"థ":{"ha":907,"x_min":-7,"x_max":815,"o":"m 607 300 q 609 328 609 315 l 609 352 q 557 509 609 467 q 398 543 513 543 q 163 293 180 543 q 235 109 150 109 q 285 139 265 109 q 309 204 306 169 l 315 291 l 456 291 l 450 200 q 461 131 446 159 q 502 102 476 102 q 607 300 593 102 m 759 337 q 678 96 743 178 q 500 -2 606 -2 q 367 76 394 -2 q 317 28 359 56 q 207 0 267 0 q 49 81 106 0 q 4 300 -7 163 q 406 661 31 661 q 759 337 781 661 m 365 46 q 404 -159 480 -87 q 344 -185 378 -185 q 285 -159 309 -185 q 263 -96 261 -133 q 365 46 267 -33 m 399 500 q 414 500 399 500 q 450 475 430 500 q 468 413 470 450 q 441 351 465 376 q 385 326 417 326 q 335 350 354 326 q 319 412 317 374 q 345 475 322 450 q 399 500 369 500 m 356 844 q 341 752 341 793 q 398 661 341 669 q 459 685 435 656 l 498 739 l 567 843 q 669 896 606 896 q 717 891 693 896 q 771 765 730 843 q 815 687 813 687 q 730 700 772 700 q 563 641 639 700 q 381 557 452 557 q 309 572 335 557 q 202 733 191 628 l 356 844 z "},"ద":{"ha":907,"x_min":-7,"x_max":815,"o":"m 607 300 q 609 328 609 315 l 609 352 q 557 509 609 467 q 398 543 513 543 q 163 293 180 543 q 235 109 150 109 q 285 139 265 109 q 309 204 306 169 l 315 291 l 456 291 l 450 200 q 461 131 446 159 q 502 102 476 102 q 607 300 593 102 m 759 337 q 678 96 743 178 q 500 -2 606 -2 q 367 76 394 -2 q 317 28 359 56 q 207 0 267 0 q 49 81 106 0 q 4 300 -7 163 q 406 661 31 661 q 759 337 781 661 m 356 844 q 341 752 341 793 q 398 661 341 669 q 459 685 435 656 l 498 739 l 567 843 q 669 896 606 896 q 717 891 693 896 q 771 765 730 843 q 815 687 813 687 q 730 700 772 700 q 563 641 639 700 q 381 557 452 557 q 309 572 335 557 q 202 733 191 628 l 356 844 z "},"ధ":{"ha":907,"x_min":-7,"x_max":815,"o":"m 607 300 q 609 328 609 315 l 609 352 q 557 509 609 467 q 398 543 513 543 q 163 293 180 543 q 235 109 150 109 q 285 139 265 109 q 309 204 306 169 l 315 291 l 456 291 l 450 200 q 461 131 446 159 q 502 102 476 102 q 607 300 593 102 m 759 337 q 678 96 743 178 q 500 -2 606 -2 q 367 76 394 -2 q 317 28 359 56 q 207 0 267 0 q 49 81 106 0 q 4 300 -7 163 q 406 661 31 661 q 759 337 781 661 m 365 46 q 404 -159 480 -87 q 344 -185 378 -185 q 285 -159 309 -185 q 263 -96 261 -133 q 365 46 267 -33 m 356 844 q 341 752 341 793 q 398 661 341 669 q 459 685 435 656 l 498 739 l 567 843 q 669 896 606 896 q 717 891 693 896 q 771 765 730 843 q 815 687 813 687 q 730 700 772 700 q 563 641 639 700 q 381 557 452 557 q 309 572 335 557 q 202 733 191 628 l 356 844 z "},"న":{"ha":848,"x_min":0,"x_max":756,"o":"m 756 411 q 740 262 756 335 q 689 131 724 189 q 594 37 654 74 q 448 0 535 0 q 304 52 357 0 q 259 178 248 104 q 269 221 261 193 q 277 279 276 250 q 268 329 278 307 q 228 348 257 350 q 167 244 189 348 q 170 93 154 176 q 217 -11 183 22 l 41 -13 q 2 159 7 46 q 3 229 0 194 q 26 306 6 263 q 78 381 46 350 q 231 446 148 446 q 351 427 315 446 q 401 374 387 407 q 414 296 415 341 q 413 202 413 252 q 474 104 413 100 q 533 141 511 104 q 569 226 556 178 q 589 393 589 304 q 542 518 589 481 q 428 554 494 554 l 281 554 q 252 565 265 554 q 243 594 239 576 q 298 639 244 635 l 441 641 q 657 604 589 641 q 756 411 756 554 m 265 831 q 250 709 250 713 q 289 657 250 663 q 346 681 324 650 q 374 735 356 702 l 446 865 q 589 943 502 943 q 626 939 604 943 q 687 830 646 915 q 743 750 730 756 q 663 767 700 767 q 485 678 570 767 q 430 624 461 654 q 289 554 335 554 q 124 720 130 554 l 265 831 z "},"ప":{"ha":943,"x_min":-6,"x_max":850,"o":"m 298 209 q 291 306 302 274 q 248 337 280 337 q 174 214 183 337 q 227 91 165 91 q 298 209 289 91 m 770 572 q 839 320 850 474 q 728 78 828 167 q 511 -2 635 -2 q 381 61 424 -2 q 206 0 311 0 q 47 58 100 0 q 2 217 -6 117 q 83 370 9 317 q 256 424 157 424 q 408 373 354 424 q 456 226 463 322 l 456 209 q 519 98 450 98 q 620 163 574 98 q 675 309 669 226 q 643 470 681 393 q 546 548 604 548 l 554 644 l 635 644 q 770 572 707 644 m 65 719 q 123 765 89 737 q 206 830 157 793 l 194 741 q 191 707 191 711 q 228 656 191 661 q 285 680 263 648 l 389 863 q 530 941 446 941 q 569 937 546 941 q 635 820 602 887 q 683 748 669 754 q 604 765 641 765 q 469 719 537 765 q 370 624 404 665 q 309 567 319 569 q 233 552 267 552 q 65 719 65 552 z "},"ఫ":{"ha":943,"x_min":-6,"x_max":850,"o":"m 298 209 q 291 306 302 274 q 248 337 280 337 q 174 214 183 337 q 227 91 165 91 q 298 209 289 91 m 770 572 q 839 320 850 474 q 728 78 828 167 q 511 -2 635 -2 q 381 61 424 -2 q 206 0 311 0 q 47 58 100 0 q 2 217 -6 117 q 83 370 9 317 q 256 424 157 424 q 408 373 354 424 q 456 226 463 322 l 456 209 q 519 98 450 98 q 620 163 574 98 q 675 309 669 226 q 643 470 681 393 q 546 548 604 548 l 554 644 l 635 644 q 770 572 707 644 m 446 -102 q 419 -164 444 -141 q 358 -187 393 -187 q 300 -163 324 -187 q 278 -100 276 -139 q 378 41 281 -37 q 446 -102 452 -44 m 196 831 q 180 707 180 722 q 217 656 180 665 q 276 680 254 648 l 304 733 l 378 863 q 519 941 435 941 q 557 937 539 941 q 623 821 589 889 q 674 748 657 754 q 594 767 631 767 q 459 719 524 767 q 359 624 409 681 q 298 569 311 572 q 213 554 257 554 q 139 569 169 554 q 54 719 54 604 q 196 831 111 763 z "},"బ":{"ha":843,"x_min":-6,"x_max":769,"o":"m 756 339 q 674 93 744 183 q 481 0 604 2 q 372 78 411 2 q 297 20 348 41 q 193 0 246 0 q 49 56 104 0 q 2 215 -6 111 q 100 365 7 319 q 146 380 122 376 q 256 407 226 389 q 294 481 289 431 q 243 557 296 557 q 203 535 220 557 q 184 484 185 513 q 183 415 183 456 l 26 415 q 26 476 20 441 q 101 600 39 556 q 259 644 163 644 q 444 474 456 644 q 387 365 439 406 q 269 319 335 324 q 170 204 178 307 q 181 130 165 163 q 233 93 198 93 q 307 200 298 93 l 311 257 l 439 257 l 435 204 q 450 131 433 161 q 502 100 467 100 q 591 215 559 100 q 613 385 613 298 q 580 522 613 472 q 521 561 550 561 q 463 543 493 561 l 469 635 q 544 646 507 646 q 704 560 639 646 q 756 339 769 474 z "},"భ":{"ha":852,"x_min":-6,"x_max":943,"o":"m 757 339 q 674 91 746 181 q 481 0 602 0 q 372 78 407 0 q 297 20 348 41 q 194 0 246 0 q 54 54 107 0 q 2 215 -6 109 q 100 365 7 319 q 174 382 122 376 q 258 409 226 389 q 294 481 291 430 q 243 557 298 557 q 203 535 220 557 q 184 491 185 513 q 183 452 183 469 q 185 415 183 435 l 26 415 q 28 476 22 441 q 101 599 39 554 q 257 644 163 644 q 393 593 352 644 q 422 474 428 543 q 372 370 419 419 q 269 319 328 322 q 171 200 180 307 q 235 93 163 93 q 307 200 298 93 l 311 257 l 439 257 l 435 204 q 450 131 433 161 q 502 100 467 100 q 574 168 544 100 q 613 337 604 235 q 601 468 613 426 q 569 535 589 509 q 513 567 548 561 q 493 573 496 570 q 492 580 489 576 q 500 589 494 583 q 506 604 506 594 q 554 646 506 646 q 616 635 570 646 q 700 567 661 624 q 757 339 769 461 m 367 46 q 435 -100 443 -41 q 407 -159 433 -135 q 347 -183 381 -183 q 289 -158 313 -183 q 267 -98 265 -133 q 367 46 270 -33 m 500 843 l 487 719 q 519 669 487 674 q 574 693 556 663 l 602 746 q 635 811 617 780 q 672 876 654 843 q 802 954 724 954 q 837 950 817 954 q 891 847 854 928 q 943 761 928 767 q 861 780 904 780 q 681 696 772 780 l 585 598 q 498 569 550 569 q 446 580 469 569 q 370 731 370 617 l 500 843 z "},"మ":{"ha":1328,"x_min":-6,"x_max":1235,"o":"m 298 209 q 291 306 302 274 q 248 337 280 337 q 174 215 183 337 q 227 93 165 93 q 298 209 289 93 m 839 315 q 728 78 839 189 q 511 -2 635 -2 q 381 61 424 -2 q 206 0 311 0 q 47 58 100 0 q 2 217 -6 117 q 83 370 9 317 q 256 424 157 424 q 408 373 354 424 q 456 226 463 322 l 456 209 q 519 96 450 96 q 617 172 572 96 q 670 346 663 244 q 607 506 678 448 q 470 550 550 550 l 426 550 q 383 593 381 550 q 435 644 385 644 l 480 644 q 717 600 635 644 q 839 315 854 524 m 865 748 q 783 765 819 765 q 650 719 719 765 q 554 626 585 665 q 522 601 531 609 q 481 572 513 593 q 406 550 448 552 q 330 567 361 552 q 246 719 248 604 l 385 830 q 372 707 372 711 q 411 656 372 661 q 469 680 446 650 q 496 733 481 707 l 569 863 q 709 941 626 941 q 748 937 726 941 q 811 828 756 926 q 865 748 848 754 m 1235 335 q 1128 81 1235 183 q 924 0 1035 0 q 741 150 783 0 l 781 352 q 793 341 789 350 q 837 306 802 328 l 837 206 q 919 120 843 128 q 1024 168 976 120 q 1087 326 1072 215 q 1089 350 1089 339 l 1089 370 q 965 552 1089 552 q 922 546 939 550 l 928 644 q 976 650 950 650 q 1133 602 1070 650 q 1235 361 1233 530 q 1235 335 1235 348 z "},"య":{"ha":1598,"x_min":-9,"x_max":1506,"o":"m 465 387 q 337 550 465 550 q 172 320 183 550 q 187 163 165 217 q 300 93 219 93 q 465 387 465 93 m 1109 330 q 996 76 1109 172 q 793 -4 906 -4 q 644 40 709 -4 q 563 120 578 83 q 291 0 467 0 q 66 87 141 0 q 2 320 -9 174 q 105 556 15 467 q 337 644 194 644 q 639 341 644 644 l 639 331 q 678 164 639 231 q 778 96 717 96 q 891 156 839 96 q 950 317 943 220 q 954 359 954 339 q 820 561 954 561 l 731 561 l 761 641 l 774 641 q 793 643 781 641 l 837 643 q 1109 354 1109 643 l 1109 330 m 1193 756 q 1113 774 1143 774 q 980 726 1050 774 q 942 692 957 709 q 898 648 926 674 q 778 567 819 576 q 733 561 756 561 q 657 576 694 561 q 574 728 578 611 l 715 837 q 700 717 700 719 q 739 665 700 670 q 796 687 776 657 q 824 741 807 715 l 896 870 q 1039 950 952 950 q 1076 944 1056 950 q 1136 844 1093 926 q 1193 756 1180 761 m 1506 335 q 1398 81 1506 183 q 1193 0 1306 0 q 1011 150 1054 0 l 1052 352 q 1064 339 1057 350 q 1107 306 1070 328 l 1107 206 q 1189 120 1111 128 q 1296 169 1244 120 q 1357 326 1341 215 q 1359 350 1359 339 l 1359 370 q 1233 552 1359 552 q 1191 546 1191 548 l 1198 644 q 1244 650 1219 650 q 1402 602 1339 650 q 1506 361 1502 530 q 1506 335 1506 348 z "},"ర":{"ha":848,"x_min":-9,"x_max":756,"o":"m 528 320 q 495 487 535 424 q 369 550 456 550 q 229 487 281 550 q 169 321 176 424 q 204 157 161 219 q 335 96 246 96 q 528 320 509 96 m 698 320 q 583 89 687 174 q 317 0 478 0 q 73 87 156 0 q 2 320 -9 174 q 112 556 15 467 q 367 644 209 644 q 698 320 719 644 m 294 841 q 281 748 281 776 q 337 656 281 665 q 398 680 372 650 l 500 835 q 607 891 544 891 q 656 887 631 891 q 713 756 667 837 q 756 681 752 681 q 667 696 709 696 q 502 635 581 696 q 455 601 478 619 q 407 567 431 583 q 331 552 365 552 q 246 567 285 552 q 141 730 130 624 l 294 841 z "},"ఱ":{"ha":970,"x_min":-6,"x_max":878,"o":"m 656 215 q 204 215 430 215 l 213 311 l 491 311 q 466 361 478 322 q 457 459 454 400 q 661 644 469 644 q 817 568 756 644 q 869 346 878 491 q 770 97 856 196 q 581 -2 685 -2 q 411 80 456 -2 q 344 23 393 46 q 243 0 294 0 q 65 85 135 0 q 5 316 -6 170 q 94 553 15 461 q 280 644 172 644 q 402 603 359 644 q 439 488 444 561 q 387 371 433 415 q 279 328 341 328 q 178 380 217 328 q 154 298 169 361 q 213 109 148 163 q 255 93 233 93 q 294 106 276 93 q 324 137 311 119 q 354 207 354 176 l 511 207 q 548 107 511 137 q 580 96 561 96 q 730 369 707 96 q 659 550 743 550 q 609 478 630 550 q 604 437 604 457 q 665 311 594 339 l 656 215 m 307 480 q 303 531 311 509 q 276 552 294 552 q 228 483 230 552 q 265 415 226 415 q 307 480 296 415 z "},"ల":{"ha":843,"x_min":22,"x_max":750,"o":"m 278 389 q 323 471 320 389 q 283 554 326 554 q 237 471 244 554 q 278 389 230 389 m 183 339 l 181 287 q 380 96 181 96 q 530 183 470 96 q 591 361 581 254 q 578 471 593 420 q 544 537 563 522 q 483 550 526 552 l 487 635 q 600 631 537 650 q 713 534 676 611 q 741 341 750 457 q 617 85 730 181 q 383 -2 517 -2 q 109 69 196 -2 q 22 294 22 139 l 26 344 q 112 561 37 478 q 289 644 187 644 q 434 592 391 644 q 471 456 478 539 q 419 325 465 372 q 303 278 372 278 q 183 339 233 278 z "},"ళ":{"ha":691,"x_min":-4,"x_max":839,"o":"m 480 626 q 604 511 587 613 q 574 380 615 446 q 483 300 537 315 q 531 219 522 270 q 518 119 541 169 q 439 35 494 70 q 305 0 383 0 q 182 19 226 0 q 117 66 139 37 q 89 128 94 94 q 92 191 83 161 q 118 244 100 220 q 157 272 135 267 q 37 346 80 291 q 2 459 -2 400 q 55 577 6 541 q 165 610 104 613 q 261 572 226 607 q 298 481 296 537 q 259 381 302 422 q 159 354 219 346 q 286 330 189 330 q 429 361 383 330 q 480 463 474 393 q 444 531 483 500 q 363 570 406 563 q 306 591 320 578 q 294 615 291 604 q 324 632 298 626 q 404 633 350 639 l 413 633 q 480 626 431 633 m 213 476 q 200 514 215 498 q 168 530 185 530 q 139 521 150 530 q 121 500 128 513 q 115 471 115 487 q 119 437 115 456 q 139 412 124 419 q 169 413 154 406 q 198 437 185 420 q 213 476 211 454 m 333 96 q 386 131 369 106 q 401 186 404 157 q 374 236 398 215 q 312 260 350 257 q 255 255 274 263 q 222 231 235 246 q 200 169 200 204 q 235 107 200 133 q 333 96 274 81 m 361 848 q 344 720 344 741 q 383 674 344 678 q 441 698 417 667 l 469 748 q 506 814 487 781 q 544 880 526 846 q 687 959 604 959 q 724 954 706 959 q 781 853 739 935 q 839 765 824 770 q 752 785 798 785 q 561 700 643 785 q 521 659 543 683 q 474 615 500 635 q 355 572 415 563 q 256 616 294 581 q 219 737 219 650 l 361 848 z "},"వ":{"ha":959,"x_min":7,"x_max":867,"o":"m 313 209 q 306 306 317 274 q 263 337 294 337 q 189 215 198 337 q 242 93 180 93 q 313 209 304 93 m 854 315 q 745 82 843 167 q 526 -2 648 -2 q 394 61 437 -2 q 219 0 326 0 q 60 58 113 0 q 16 217 7 117 q 98 370 24 317 q 270 424 172 424 q 423 373 369 424 q 470 226 478 322 q 469 209 470 217 q 533 96 465 96 q 631 170 585 96 q 685 344 676 244 q 559 541 691 506 q 485 550 524 550 q 393 550 439 550 q 367 562 370 552 q 363 593 363 572 q 395 631 367 619 q 450 644 424 644 l 494 644 q 730 600 650 644 q 854 315 867 524 m 854 748 q 770 765 804 765 q 639 719 706 765 q 546 631 576 667 q 478 567 493 570 q 404 550 435 550 q 319 567 352 550 q 233 719 237 604 l 374 830 l 363 741 q 359 707 359 711 q 398 656 359 661 q 456 680 435 648 q 483 733 469 707 l 556 863 q 698 941 613 941 q 735 937 717 941 q 795 834 752 915 q 854 748 839 754 z "},"శ":{"ha":787,"x_min":0,"x_max":867,"o":"m 472 396 l 463 393 q 387 319 419 376 q 352 212 356 261 q 369 128 348 163 q 430 93 391 93 q 519 244 509 93 q 472 396 526 343 m 335 511 q 537 478 456 511 q 552 500 550 485 q 454 559 557 548 q 431 600 431 576 q 496 644 431 644 q 645 606 594 644 q 693 519 696 567 q 622 431 687 454 q 688 240 696 357 q 601 61 680 122 q 406 0 522 0 q 231 55 291 0 q 178 215 170 109 q 313 402 187 352 q 357 417 335 409 q 404 431 380 424 q 357 439 391 435 q 170 307 209 441 q 163 256 167 291 l 0 256 q 4 285 2 270 q 21 356 6 320 q 54 409 37 393 q 335 511 143 511 m 439 831 l 424 709 q 459 659 424 665 q 511 683 491 654 l 537 737 q 569 800 552 769 q 604 865 587 831 q 730 943 656 943 q 765 939 748 943 q 785 900 770 928 q 827 814 800 872 q 867 750 854 756 q 785 769 826 769 q 619 687 693 769 l 530 587 q 452 559 491 559 q 387 570 413 559 q 313 722 313 607 l 439 831 z "},"ష":{"ha":917,"x_min":-6,"x_max":824,"o":"m 237 96 q 299 212 291 96 q 244 328 307 328 q 180 194 189 328 q 237 96 172 96 m 469 237 l 467 165 q 535 93 467 93 q 622 320 604 93 q 608 479 626 404 q 550 556 591 554 q 494 550 524 557 l 498 631 q 559 643 528 643 q 731 569 672 643 q 787 339 802 487 q 782 306 785 328 q 774 259 780 285 q 746 50 733 94 q 769 -4 754 24 l 824 -87 l 644 -87 q 626 -33 635 -70 q 619 20 617 4 q 517 -4 572 -4 q 383 69 413 -4 q 219 0 328 0 q 53 55 111 0 q 1 209 -6 109 q 98 378 7 309 q 252 419 156 419 q 413 376 361 419 q 469 237 469 330 m 226 830 q 209 707 209 722 q 246 656 209 661 q 306 680 283 648 l 333 733 l 407 863 q 550 941 467 941 q 587 937 569 941 q 654 820 620 887 q 704 748 687 754 q 624 765 659 765 q 487 719 556 765 q 442 678 467 700 q 391 628 417 656 q 243 552 311 552 q 169 567 207 552 q 83 719 83 604 q 143 765 107 737 q 226 830 178 793 z "},"స":{"ha":917,"x_min":4,"x_max":824,"o":"m 581 559 l 513 561 l 519 646 l 606 646 q 752 581 696 646 q 813 343 824 496 q 715 93 802 189 q 497 -2 626 -2 q 324 54 369 -2 q 289 215 283 102 q 293 269 293 256 q 244 330 293 330 q 196 296 217 330 q 181 85 139 213 l 213 15 l 59 11 q 11 204 4 100 q 81 367 17 293 q 257 426 131 426 q 426 359 383 426 q 456 194 446 328 q 520 96 465 96 q 607 193 572 96 q 640 346 635 263 q 629 494 644 430 q 581 559 613 559 m 252 830 l 235 707 q 272 656 235 661 q 330 680 309 650 l 433 863 q 576 941 491 941 q 613 937 593 941 q 680 820 646 887 q 730 748 713 754 q 650 765 685 765 q 515 719 581 765 q 408 619 452 667 q 352 567 365 570 q 278 552 311 552 q 194 567 233 552 q 109 719 109 604 q 167 765 131 737 l 252 830 z "},"హ":{"ha":1343,"x_min":7,"x_max":1250,"o":"m 1033 211 q 1089 302 1081 211 q 1044 393 1096 393 q 985 302 993 393 q 1033 211 978 211 m 313 209 q 306 306 317 274 q 263 337 294 337 q 189 215 198 337 q 242 93 180 93 q 313 209 304 93 m 793 548 q 820 319 831 476 q 728 81 809 163 q 526 -2 646 -2 q 394 61 437 -2 q 219 0 326 0 q 60 58 113 0 q 16 217 7 117 q 98 370 24 317 q 270 424 172 424 q 423 373 369 424 q 470 226 478 322 q 469 209 470 217 q 533 96 465 96 q 624 172 585 96 q 669 344 661 239 q 670 369 670 357 q 670 391 670 380 q 572 552 670 552 q 547 550 557 552 q 522 561 537 548 q 509 594 507 574 q 565 650 511 650 l 1069 650 q 1205 564 1159 650 q 1242 372 1250 478 q 1174 200 1233 267 q 1015 126 1111 126 q 856 309 837 126 q 917 439 863 396 q 1022 474 959 474 q 1113 437 1085 474 q 1026 548 1111 548 l 793 548 m 193 841 q 180 748 180 793 q 235 656 180 663 q 289 680 276 652 l 315 733 q 393 856 352 796 q 519 928 446 928 q 537 928 528 928 q 556 926 546 928 q 577 869 561 902 q 613 794 593 837 q 656 720 654 720 q 567 731 622 731 q 352 615 469 731 q 289 567 298 569 q 220 552 246 552 q 144 567 189 552 q 39 730 26 624 l 193 841 z "},"ఽ":{"ha":1124,"x_min":9,"x_max":1031,"o":"m 1022 0 l 204 0 q 19 109 46 0 q 9 180 9 141 q 31 249 9 219 q 89 298 54 280 q 267 330 152 330 q 478 389 428 330 q 498 456 498 413 q 463 530 498 498 q 357 561 428 561 q 189 489 231 561 q 174 420 174 463 l 15 420 q 367 644 28 644 q 556 586 489 644 q 622 437 624 528 q 504 287 622 320 q 389 269 452 272 q 279 261 326 265 q 202 253 231 257 q 152 241 172 248 q 104 172 104 222 q 128 126 104 152 q 204 100 152 100 l 1031 100 l 1022 0 z "},"ా":{"ha":652,"x_min":-709,"x_max":435,"o":"m 257 306 q 209 394 267 394 q 148 295 156 394 q 198 196 141 196 q 257 306 248 196 m 241 652 q 388 579 341 652 q 427 393 435 506 q 353 200 419 280 q 190 120 287 120 q 44 178 93 120 q 6 304 0 226 q 69 432 13 381 q 193 483 126 483 q 287 452 233 483 q 253 520 281 493 q 172 548 224 548 l -709 548 l -698 652 l 241 652 z "},"ి":{"ha":0,"x_min":-802,"x_max":-335,"o":"m -583 735 q -532 800 -537 735 q -576 865 -528 865 q -611 844 -596 865 q -628 798 -626 824 q -583 735 -630 735 m -352 722 q -446 572 -359 626 q -621 526 -520 526 q -802 570 -722 526 l -793 696 q -617 609 -741 609 q -498 696 -493 609 q -628 659 -552 659 q -767 796 -780 659 q -706 899 -761 861 q -563 937 -650 937 q -352 722 -335 937 z "},"ీ":{"ha":0,"x_min":-802,"x_max":-341,"o":"m -583 735 q -532 800 -537 735 q -576 865 -528 865 q -611 844 -596 865 q -628 798 -626 824 q -583 735 -630 735 m -352 722 q -446 572 -359 626 q -621 526 -520 526 q -802 570 -722 526 l -793 696 q -617 609 -741 609 q -498 696 -493 609 q -628 659 -552 659 q -767 796 -780 659 q -604 933 -761 917 l -604 941 q -551 1043 -604 1006 q -432 1080 -498 1080 q -341 1054 -367 1080 l -346 963 q -406 1000 -369 1000 q -469 950 -465 1000 l -469 924 q -352 722 -341 881 z "},"ు":{"ha":546,"x_min":-113,"x_max":339,"o":"m 339 333 q 235 67 339 174 q 41 -22 150 -22 q -113 144 -100 -22 l -100 348 q -77 269 -81 343 q -57 161 -72 196 q 29 104 -35 104 q 141 163 93 104 q 206 344 206 237 l 206 369 q 80 561 206 561 q 39 554 50 556 l 46 657 q 91 663 67 663 q 248 611 187 663 q 339 359 339 535 q 339 333 339 346 z "},"ూ":{"ha":1050,"x_min":-113,"x_max":783,"o":"m 548 217 q 594 313 587 219 q 557 409 602 407 q 507 309 509 411 q 511 252 504 272 q 548 217 522 215 m 602 644 q 763 383 781 644 q 674 180 754 246 q 538 128 613 128 q 415 170 463 128 q 361 320 352 219 q 417 444 365 389 q 543 496 470 496 q 619 478 581 496 q 541 550 589 550 l 294 550 q 339 359 339 483 q 339 333 339 346 q 337 307 339 320 q 237 76 328 163 q 43 -4 150 -4 q -113 144 -100 -4 l -100 348 q -77 269 -81 343 q -57 161 -72 196 q 37 104 -35 104 q 126 163 89 104 q 174 356 174 239 q 174 389 174 372 q 124 550 174 519 l 37 550 l 44 644 l 602 644 z "},"ృ":{"ha":241,"x_min":-367,"x_max":178,"o":"m -148 -135 q -176 -83 -143 -83 q -215 -139 -209 -83 q -178 -185 -217 -185 q -148 -135 -150 -185 m -137 -378 q -308 -325 -250 -378 q -361 -191 -367 -272 q -293 -63 -354 -113 q -146 -15 -237 -15 q -26 -131 -17 -15 q -157 -248 -35 -248 q -219 -228 -200 -248 q -135 -306 -222 -306 q 52 -24 30 -306 q 54 11 54 -6 q 54 39 54 11 q -37 263 54 231 l -35 320 q 123 245 69 320 q 178 19 178 170 q 106 -244 178 -131 q -137 -378 19 -378 z "},"ౄ":{"ha":550,"x_min":-367,"x_max":496,"o":"m 350 154 q 310 95 315 154 q 342 37 306 37 q 381 95 378 37 q 350 154 385 154 m 478 204 q 435 28 494 94 q 330 -19 394 -19 q 226 100 217 -19 q 341 209 233 209 q 393 185 376 209 q 339 257 393 257 l -37 257 l -33 322 l 241 322 q 370 320 341 322 q 459 263 430 320 q 478 204 474 235 m -148 -135 q -176 -83 -143 -83 q -215 -139 -209 -83 q -178 -185 -217 -185 q -148 -135 -150 -185 m -137 -378 q -308 -325 -250 -378 q -361 -191 -367 -272 q -293 -63 -354 -113 q -146 -15 -237 -15 q -26 -131 -17 -15 q -157 -248 -35 -248 q -219 -228 -200 -248 q -135 -306 -222 -306 q 52 -24 30 -306 q 54 11 54 -6 l 54 39 q -37 263 54 231 l -35 320 q 123 245 69 320 q 178 19 178 170 q 106 -244 178 -131 q -137 -378 19 -378 z "},"ె":{"ha":106,"x_min":-693,"x_max":-31,"o":"m -37 728 q -131 583 -43 635 q -246 550 -194 550 l -396 546 l -415 648 l -270 648 q -198 707 -204 648 q -265 781 -194 781 l -693 781 l -687 881 l -269 881 q -143 880 -146 881 q -63 836 -94 878 q -37 728 -31 794 z "},"ే":{"ha":115,"x_min":-693,"x_max":-28,"o":"m -37 728 q -131 583 -46 633 q -246 550 -194 550 l -396 546 l -415 648 l -270 648 q -198 707 -204 648 q -265 781 -194 781 l -693 781 l -687 881 l -269 881 q -281 952 -287 915 q -131 1078 -272 1078 q -28 1039 -80 1078 l -37 948 q -110 991 -67 991 q -156 946 -154 991 q -143 880 -159 902 q -62 834 -93 876 q -37 728 -31 793 z "},"ై":{"ha":113,"x_min":-876,"x_max":-26,"o":"m -659 -163 q -689 -100 -656 -100 q -730 -163 -726 -100 q -725 -210 -731 -194 q -698 -226 -719 -226 q -659 -163 -665 -226 m -152 -291 l -704 -291 q -867 -163 -876 -291 q -802 -57 -861 -94 q -687 -28 -756 -28 q -543 -146 -537 -28 q -576 -202 -546 -194 l -144 -202 l -152 -291 m -31 728 q -128 583 -37 633 q -243 550 -187 550 l -393 546 l -409 648 l -267 648 q -194 707 -198 648 q -259 781 -189 781 l -687 781 l -681 881 l -263 881 q -137 880 -143 881 q -57 836 -89 878 q -31 728 -26 794 z "},"ొ":{"ha":656,"x_min":-652,"x_max":439,"o":"m 211 261 q 255 362 248 261 q 215 463 261 463 q 167 396 185 463 q 163 359 163 380 q 211 261 161 261 m 430 480 q 178 180 409 180 q 52 235 98 180 q 13 383 6 291 q 78 498 17 450 q 197 543 139 543 q 281 524 256 543 q 263 609 289 570 q 201 646 239 646 q 133 620 163 646 q 102 552 104 594 l 98 530 l -28 530 l -26 570 q -139 743 -17 698 q -367 769 -209 769 q -489 698 -485 769 q -461 652 -493 661 q -354 644 -444 644 q -320 600 -317 644 q -363 550 -320 550 q -594 586 -537 550 q -646 717 -652 622 q -326 861 -635 861 q 63 672 -17 861 q 248 744 133 744 q 386 674 333 744 q 430 480 439 604 z "},"ో":{"ha":656,"x_min":-652,"x_max":446,"o":"m 211 261 q 255 362 248 261 q 215 463 261 463 q 167 396 185 463 q 163 359 163 380 q 211 261 161 261 m 430 480 q 178 180 409 180 q 52 235 98 180 q 13 383 6 291 q 78 498 17 450 q 197 543 139 543 q 281 524 256 543 q 263 609 289 570 q 201 646 239 646 q 133 620 163 646 q 102 552 104 594 l 98 530 l -28 530 l -26 570 q -139 743 -17 698 q -367 769 -209 769 q -489 698 -485 769 q -461 652 -493 661 q -354 644 -444 644 q -320 600 -317 644 q -363 550 -320 550 q -594 586 -537 550 q -646 717 -652 622 q -326 861 -635 861 q 61 669 -17 861 q 161 730 74 698 q 186 852 154 807 q 243 911 219 896 q 348 931 280 931 q 419 904 387 931 l 420 770 q 365 824 400 824 q 306 801 330 824 q 289 746 281 778 q 430 480 446 680 z "},"ౌ":{"ha":672,"x_min":-615,"x_max":452,"o":"m 278 467 q 230 565 283 565 q 168 456 176 565 q 217 348 159 348 q 278 467 269 348 m 415 733 q 444 548 452 661 q 366 357 437 435 q 197 280 294 280 q 52 337 100 280 q 15 463 11 385 q 84 606 26 557 q 224 654 143 654 q 294 626 274 654 q 226 726 296 726 l -120 726 q -104 665 -100 704 q -254 559 -109 559 l -444 559 l -469 646 l -315 646 q -268 654 -280 646 q -254 687 -256 661 q -269 726 -252 713 l -615 726 l -607 826 l 254 826 q 415 733 367 826 z "},"్":{"ha":163,"x_min":-433,"x_max":13,"o":"m 6 867 l -193 867 q -224 841 -220 867 q -211 819 -226 822 q -196 819 -206 815 l -54 819 l -59 730 l -213 730 q -243 707 -224 728 q -246 674 -246 676 q -187 639 -246 643 q -161 609 -161 637 q -187 563 -161 585 q -206 550 -196 554 q -241 548 -222 548 l -265 548 q -278 546 -269 548 l -304 546 q -413 656 -413 546 q -354 752 -413 719 q -394 896 -433 824 q -330 957 -372 939 q -287 967 -309 967 l 13 967 l 6 867 z "},"ౕ":{"ha":580,"x_min":46,"x_max":367,"o":"m 294 719 q 217 785 256 785 q 155 766 178 785 q 131 719 131 746 q 193 615 131 667 l 106 606 q 62 663 78 628 q 46 731 46 698 q 59 785 46 763 q 98 830 72 807 q 204 870 143 870 q 367 750 317 870 l 294 719 z "},"ౖ":{"ha":13,"x_min":-907,"x_max":-291,"o":"m -709 -174 q -741 -111 -702 -111 q -781 -174 -776 -111 q -750 -237 -781 -237 q -709 -174 -715 -237 m -296 -304 l -754 -304 q -907 -181 -891 -304 q -854 -67 -907 -106 q -739 -39 -806 -37 q -607 -146 -615 -46 q -641 -215 -613 -194 l -291 -215 l -296 -304 z "},"ౘ":{"ha":926,"x_min":0,"x_max":833,"o":"m 617 1104 q 586 1167 622 1167 q 545 1104 550 1167 q 578 1041 541 1041 q 617 1104 615 1041 m 752 1102 q 572 974 743 974 l 4 974 l 9 1065 l 456 1065 q 434 1096 443 1069 q 438 1156 426 1124 q 486 1212 450 1187 q 590 1237 522 1237 q 709 1204 657 1237 q 752 1102 761 1170 m 817 315 q 724 78 806 169 q 644 19 687 35 q 554 0 600 2 q 413 74 467 -4 q 379 46 394 59 q 344 22 363 33 q 253 0 302 0 q 166 17 204 0 q 100 61 128 33 q 46 215 43 119 q 89 322 52 278 q 161 374 120 363 l 0 374 l 6 469 l 378 469 l 370 361 l 330 361 q 215 215 224 361 q 276 93 204 93 q 326 128 304 93 q 352 206 348 163 l 357 256 l 487 256 l 483 209 q 519 107 476 144 q 552 96 531 96 q 669 272 643 96 q 674 357 674 311 q 537 556 674 557 l 489 556 l 409 554 q 380 599 376 554 q 415 644 383 644 l 541 644 q 719 593 646 643 q 817 315 831 509 m 356 830 l 344 741 q 341 707 341 711 q 380 656 341 661 q 437 680 415 648 q 465 733 450 707 l 537 863 q 678 941 594 941 q 717 937 698 941 q 777 834 733 915 q 833 748 820 754 q 754 765 791 765 q 620 719 687 765 q 519 624 561 669 q 464 569 483 583 q 424 553 444 554 q 367 552 404 552 q 298 567 330 552 q 215 719 219 604 l 356 830 z "},"ౙ":{"ha":843,"x_min":-7,"x_max":750,"o":"m 607 828 q 575 891 609 891 q 537 828 541 891 q 567 765 530 765 q 607 828 604 765 m 743 826 q 561 698 733 698 l 2 698 l 9 791 l 446 791 q 423 820 431 793 q 427 880 415 848 q 475 936 439 911 q 578 961 511 961 q 693 933 644 961 q 743 826 748 896 m 746 226 q 669 60 739 122 q 492 -2 598 -2 q 361 72 385 -2 q 300 24 352 46 q 194 2 248 2 q 45 61 98 2 q 1 232 -7 120 q 115 387 9 344 q 170 398 143 393 q 226 407 198 404 q 294 494 289 424 q 243 565 298 565 q 174 491 180 565 q 174 439 172 474 l 13 439 q 61 580 20 517 q 257 670 128 670 q 386 622 337 670 q 433 491 435 574 q 513 431 456 433 q 563 452 541 430 q 590 507 585 474 q 579 569 594 541 q 539 598 563 598 q 476 570 496 598 l 481 663 q 581 680 519 680 q 694 636 644 680 q 740 528 744 593 q 702 415 735 463 q 530 339 644 339 q 409 406 456 339 q 281 333 367 333 q 159 256 196 333 q 146 206 148 231 q 220 100 139 100 q 275 128 252 100 q 300 196 298 156 l 306 263 l 456 263 l 450 187 q 517 91 443 91 q 607 215 600 91 q 574 324 613 252 l 737 324 q 746 226 750 281 z "},"ౠ":{"ha":1963,"x_min":-6,"x_max":1870,"o":"m 756 337 q 674 90 744 181 q 481 -2 604 -2 q 396 26 422 -2 l 372 76 q 297 19 348 39 q 193 -2 246 -2 q 49 54 104 -2 q 2 215 -6 109 q 100 363 7 317 q 146 378 122 374 q 256 406 226 387 q 294 480 289 430 q 243 556 296 556 q 203 533 220 556 q 184 482 185 511 q 183 415 183 454 l 26 415 q 26 474 20 439 q 101 599 39 554 q 259 644 163 644 q 444 472 456 644 q 387 363 439 404 q 269 317 335 322 q 170 204 178 306 q 181 128 165 161 q 233 91 198 91 q 307 198 298 91 l 311 256 l 439 256 l 435 202 q 450 130 433 159 q 502 100 467 100 q 591 213 559 100 q 613 384 613 298 q 580 520 613 470 q 521 559 550 559 q 463 541 493 559 l 469 635 q 544 644 507 644 q 704 561 639 644 q 756 337 769 472 m 1641 217 q 1685 313 1678 219 q 1648 409 1693 407 q 1596 313 1596 411 q 1641 217 1596 215 m 1857 383 q 1765 180 1848 246 q 1630 128 1704 128 q 1501 174 1556 128 q 1454 320 1446 220 q 1509 444 1459 393 q 1633 496 1561 496 q 1711 478 1674 496 q 1630 550 1704 550 l 1369 550 q 1411 359 1411 483 q 1411 307 1411 333 q 1328 77 1400 157 q 1148 -4 1256 -4 q 1006 83 1041 -4 q 819 -4 933 -4 q 680 59 728 -4 q 648 144 650 100 l 715 406 q 754 326 720 385 l 739 191 q 813 104 735 102 q 919 320 900 104 l 919 391 q 826 561 919 561 l 793 556 l 783 554 l 791 639 q 854 644 815 644 q 1083 359 1083 644 q 1080 278 1083 300 q 1072 181 1072 237 q 1141 104 1072 104 q 1248 356 1233 104 q 1248 389 1248 372 q 1196 550 1248 522 l 1109 550 l 1117 644 l 1693 644 q 1781 615 1743 644 q 1857 383 1870 554 z "},"ౡ":{"ha":1461,"x_min":-17,"x_max":1369,"o":"m 944 209 l 1178 206 q 1264 183 1222 204 q 1328 119 1306 163 q 1359 -76 1369 39 q 1290 -240 1356 -167 q 1133 -313 1224 -313 q 970 -130 959 -313 q 1031 -3 980 -43 q 1143 37 1083 37 q 1230 -2 1202 37 q 1199 83 1228 56 q 1128 111 1170 111 l 769 111 l 778 209 l 944 209 m 833 -243 q 561 -413 733 -367 q 419 -431 493 -431 q 283 -412 344 -431 q 172 -356 222 -393 q 61 -172 61 -276 q 163 26 61 -54 q 341 111 222 72 q 450 153 396 131 q 546 204 504 174 q 641 377 641 272 q 613 516 641 481 q 541 550 585 550 q 481 507 506 550 q 457 422 461 472 l 456 380 l 304 380 l 307 431 q 293 518 309 478 q 239 557 276 557 q 182 534 202 557 q 156 478 163 511 q 163 356 137 411 l 2 356 q 52 570 -17 478 q 226 663 120 663 q 327 640 285 663 q 387 576 369 617 q 548 663 431 663 q 735 578 669 663 q 793 397 793 506 q 756 226 793 289 q 661 119 720 163 q 522 44 602 76 q 377 -12 443 13 q 289 -58 311 -37 q 256 -100 267 -80 q 243 -163 243 -128 q 259 -224 243 -198 q 300 -270 276 -250 q 406 -313 354 -313 q 646 -252 544 -313 q 709 -200 687 -226 q 746 -154 731 -174 q 775 -88 761 -133 q 794 2 789 -43 q 793 80 798 46 q 769 113 787 113 l 780 209 q 869 162 835 209 q 910 45 902 115 q 900 -103 919 -24 q 833 -243 881 -181 m 1209 -135 q 1203 -69 1211 -89 q 1159 -48 1194 -48 q 1101 -137 1107 -48 q 1150 -226 1094 -226 q 1209 -135 1202 -226 z "},"ౢ":{"ha":9,"x_min":-728,"x_max":-167,"o":"m -713 -119 q -706 -103 -713 -119 q -667 -61 -698 -87 q -574 -35 -635 -35 q -487 -69 -513 -35 q -405 -35 -457 -35 q -323 -46 -352 -35 q -276 -78 -294 -57 q -237 -178 -237 -124 q -258 -266 -237 -231 q -312 -320 -280 -300 q -383 -355 -344 -341 q -457 -381 -422 -369 q -522 -408 -493 -393 q -561 -448 -552 -424 q -554 -513 -576 -478 q -478 -552 -533 -546 q -307 -465 -363 -552 q -276 -391 -285 -430 q -257 -322 -267 -352 q -209 -330 -233 -326 q -167 -337 -185 -333 q -285 -587 -191 -513 q -472 -644 -361 -644 q -615 -593 -554 -644 q -663 -446 -683 -537 q -620 -369 -652 -398 q -550 -322 -589 -341 q -470 -291 -511 -304 q -400 -261 -430 -278 q -346 -181 -346 -230 q -360 -120 -346 -133 q -392 -107 -374 -107 q -417 -116 -409 -107 q -430 -137 -424 -124 q -435 -181 -435 -154 q -446 -191 -435 -191 l -535 -191 q -544 -174 -544 -191 l -543 -156 q -550 -119 -541 -133 q -576 -104 -559 -104 q -601 -113 -593 -104 q -615 -135 -609 -122 q -609 -187 -624 -165 q -617 -202 -602 -202 l -713 -202 q -727 -176 -726 -202 q -713 -119 -728 -150 z "},"ౣ":{"ha":141,"x_min":-728,"x_max":72,"o":"m -28 -526 q -31 -483 -26 -498 q -59 -469 -37 -469 q -95 -526 -91 -469 q -65 -583 -100 -583 q -28 -526 -33 -583 m -104 -322 l -48 -324 q 46 -381 24 -330 q 68 -488 72 -428 q 22 -594 63 -548 q -78 -639 -19 -639 q -180 -520 -187 -639 q -142 -441 -174 -467 q -71 -415 -109 -415 q -17 -441 -33 -415 q -35 -394 -17 -404 q -80 -383 -54 -383 l -178 -385 q -289 -589 -194 -524 q -472 -644 -369 -644 q -615 -593 -554 -644 q -663 -446 -683 -537 q -620 -369 -652 -398 q -550 -322 -589 -341 q -470 -291 -511 -304 q -400 -261 -430 -278 q -346 -181 -346 -230 q -360 -120 -346 -133 q -392 -107 -374 -107 q -417 -116 -409 -107 q -430 -137 -424 -124 q -435 -181 -435 -154 q -446 -191 -435 -191 l -535 -191 q -544 -174 -544 -191 l -543 -156 q -550 -119 -541 -133 q -576 -104 -559 -104 q -601 -113 -593 -104 q -615 -135 -609 -122 q -609 -187 -624 -165 q -617 -202 -602 -202 l -713 -202 q -727 -176 -726 -202 q -713 -119 -728 -150 q -667 -61 -698 -87 q -574 -35 -635 -35 q -487 -69 -513 -35 q -405 -35 -457 -35 q -323 -46 -352 -35 q -276 -78 -294 -57 q -237 -178 -237 -124 q -258 -266 -237 -231 q -312 -320 -280 -300 q -383 -355 -344 -341 q -457 -381 -422 -369 q -522 -408 -493 -393 q -561 -448 -552 -424 q -552 -515 -576 -480 q -468 -552 -526 -552 q -369 -526 -409 -552 q -307 -465 -330 -500 q -276 -391 -285 -430 q -257 -322 -267 -352 q -104 -322 -180 -322 z "},"౦":{"ha":907,"x_min":-9,"x_max":815,"o":"m 598 361 q 563 546 607 481 q 419 624 517 624 q 261 551 320 624 q 193 362 202 478 q 231 178 183 246 q 381 109 280 109 q 598 361 578 109 m 791 363 q 661 100 780 196 q 359 0 541 0 q 84 99 178 0 q 4 363 -9 198 q 126 626 17 528 q 415 730 237 730 q 791 363 815 730 z "},"౧":{"ha":878,"x_min":-9,"x_max":785,"o":"m 785 369 l 783 306 q 676 0 769 159 l 489 0 q 537 83 517 31 q 596 334 587 202 q 572 537 606 467 q 431 624 530 624 q 278 541 339 624 q 207 298 217 454 q 206 269 206 283 q 269 2 206 98 l 69 0 q 5 303 -9 137 q 109 585 19 469 q 411 730 215 730 q 785 369 785 730 z "},"౨":{"ha":802,"x_min":0,"x_max":713,"o":"m 317 478 q 350 497 337 474 q 363 566 363 520 q 356 629 363 611 q 328 646 348 646 q 278 572 281 646 q 317 478 270 481 m 706 335 q 576 93 694 185 q 272 0 459 0 l 0 0 l 0 111 l 276 111 q 489 189 398 111 q 573 338 570 259 q 552 466 576 417 q 470 561 528 515 q 415 428 470 474 q 328 394 374 394 q 247 408 281 394 q 189 444 213 422 q 139 570 128 500 q 198 685 143 641 q 326 730 252 730 q 469 706 400 730 q 593 631 537 681 q 706 335 713 520 z "},"౩":{"ha":730,"x_min":0,"x_max":637,"o":"m 0 189 q 4 239 0 209 l 161 239 q 156 204 156 220 q 202 113 156 146 q 307 80 243 80 q 419 119 372 80 q 470 219 467 159 q 447 307 474 278 q 370 337 420 337 l 202 337 l 209 435 l 376 435 q 439 460 409 435 q 472 530 469 485 q 330 656 483 656 q 181 500 196 656 l 22 500 q 20 523 20 502 q 44 587 20 544 q 102 663 70 643 q 330 730 194 730 q 541 689 465 730 q 630 522 637 635 q 604 437 624 467 q 548 391 596 426 q 625 225 635 352 q 507 39 615 98 q 269 0 426 0 q 54 59 113 0 q 0 189 0 109 z "},"౪":{"ha":724,"x_min":-4,"x_max":631,"o":"m 628 569 q 415 370 607 407 q 309 361 361 361 q 37 470 120 361 q 2 563 7 509 q 7 652 -4 617 q 48 728 19 687 l 194 724 q 155 644 163 685 q 153 542 146 604 q 203 448 159 480 q 315 417 246 417 q 478 554 461 417 q 474 645 481 604 q 433 728 467 687 l 581 730 q 620 653 609 687 q 628 569 631 619 m 583 211 q 490 56 576 113 q 269 0 404 0 q 67 57 135 0 q 7 210 -2 115 q 98 361 17 306 q 309 420 178 420 q 583 211 604 420 m 444 207 q 309 361 452 361 q 196 319 241 361 q 146 211 152 278 q 176 104 141 144 q 285 63 211 63 q 444 207 430 63 z "},"౫":{"ha":865,"x_min":0,"x_max":772,"o":"m 593 430 q 648 559 648 504 q 630 618 648 591 q 578 644 611 644 q 522 620 544 644 q 500 567 500 596 q 546 469 500 520 q 593 430 565 446 m 683 370 q 761 219 761 296 q 680 60 761 120 q 483 0 598 0 l 465 85 q 574 128 524 89 q 626 224 626 170 q 609 291 626 261 q 331 69 481 152 q 0 2 181 2 l 0 100 q 216 168 137 93 q 294 361 294 243 q 226 554 294 485 q 130 605 187 591 q 2 622 72 619 l 2 726 q 296 624 183 726 q 413 367 413 515 q 376 213 413 287 q 524 356 467 276 q 402 506 441 419 q 389 566 389 535 q 404 631 389 596 q 509 720 428 696 q 578 730 541 730 q 717 685 659 730 q 772 560 772 633 q 683 370 772 487 z "},"౬":{"ha":737,"x_min":-4,"x_max":644,"o":"m 644 0 l 144 0 q 37 57 78 0 q 0 180 0 109 q 50 304 0 250 q 156 359 91 346 q 48 422 96 367 q -4 522 -4 480 q 6 598 -4 565 q 33 656 15 631 q 144 713 72 713 l 367 713 l 372 631 l 246 631 q 159 557 178 631 q 154 520 154 539 q 174 456 154 480 q 269 411 215 411 l 407 411 l 415 319 l 263 319 q 188 288 222 319 q 154 209 154 257 q 174 143 154 167 q 265 98 209 98 l 635 98 l 644 0 z "},"౭":{"ha":769,"x_min":-6,"x_max":680,"o":"m 261 457 l 302 456 l 320 456 q 472 539 478 456 q 320 635 465 635 q 172 589 213 635 q 157 520 157 569 l 2 520 q 331 728 -6 728 q 543 680 457 728 q 652 528 637 630 q 593 393 656 441 q 456 361 528 354 l 341 369 q 326 370 331 370 l 317 370 q 161 226 152 370 q 212 132 163 172 q 341 93 261 93 q 425 119 385 93 q 476 172 465 146 q 487 289 491 226 l 672 289 q 620 100 680 167 q 341 0 528 0 q 131 57 230 0 q 0 250 9 128 q 57 411 -6 357 q 202 457 115 457 l 261 457 z "},"౮":{"ha":907,"x_min":-9,"x_max":815,"o":"m 181 459 l 183 396 q 306 126 202 194 q 383 102 341 102 q 507 193 469 102 q 530 380 539 263 q 435 728 519 585 l 602 728 q 696 422 680 570 q 698 389 698 406 l 698 361 q 363 0 698 0 q 93 143 191 0 q 3 421 15 257 q 57 728 -9 585 l 237 726 q 181 459 181 630 m 500 728 l 815 728 l 815 604 l 500 604 l 500 728 z "},"౯":{"ha":737,"x_min":-4,"x_max":644,"o":"m 635 615 l 265 615 q 159 543 183 615 q 154 504 154 522 q 188 425 154 456 q 263 394 222 394 l 415 394 l 407 302 l 269 302 q 181 267 215 302 q 154 193 154 233 q 202 93 154 122 q 246 81 220 81 l 372 81 l 367 0 l 144 0 q 33 56 72 0 q -4 183 -4 107 q 48 291 -4 233 q 156 354 96 346 q 15 463 54 376 q 0 531 0 494 q 9 598 0 567 q 37 656 19 630 q 144 713 78 713 l 644 713 l 635 615 z "},"౸":{"ha":883,"x_min":13,"x_max":791,"o":"m 759 35 q 773 -58 785 -17 q 730 -120 761 -100 q 631 -163 711 -126 l 307 -302 l 269 -226 l 602 -83 q 628 4 656 -61 q 596 36 620 22 q 544 37 572 50 q 441 6 494 13 l 420 56 l 539 102 q 637 113 581 120 q 759 35 724 104 m 767 363 q 644 100 756 198 q 362 0 535 0 q 101 99 189 0 q 24 363 13 198 q 141 626 37 528 q 415 730 246 730 q 767 363 791 730 m 585 361 q 551 553 593 481 q 416 624 509 624 q 267 552 322 624 q 203 363 211 480 q 241 178 194 246 q 381 109 287 109 q 585 361 567 109 z "},"౹":{"ha":256,"x_min":54,"x_max":163,"o":"m 54 719 l 163 719 l 163 -2 l 54 -2 l 54 719 z "},"౺":{"ha":702,"x_min":26,"x_max":609,"o":"m 485 -120 l 341 -120 l 356 -22 q 367 64 361 19 q 378 141 372 109 l 339 111 q 315 95 330 106 q 280 74 300 85 q 174 48 226 48 q 56 98 85 48 q 43 252 26 148 l 102 644 l 269 644 l 220 328 q 213 215 207 233 q 231 190 219 196 q 264 183 244 183 q 301 190 283 183 q 334 207 319 196 q 361 229 350 219 q 381 246 372 239 l 443 644 l 609 644 l 485 -120 z "},"౻":{"ha":915,"x_min":28,"x_max":822,"o":"m 596 128 q 441 35 526 35 q 360 55 389 35 q 326 126 331 74 q 302 101 317 117 q 267 70 287 85 q 161 35 215 35 q 56 81 83 35 q 46 241 28 128 l 102 644 l 257 644 l 204 256 q 204 193 198 215 q 240 170 209 170 q 295 191 270 170 q 330 224 320 211 l 387 644 l 539 644 l 483 256 q 482 193 478 215 q 519 170 487 170 q 574 191 550 170 q 607 224 598 211 l 667 644 l 822 644 l 691 -148 l 550 -146 q 570 -36 561 -100 q 596 128 580 28 z "},"౼":{"ha":870,"x_min":15,"x_max":778,"o":"m 46 430 q 411 431 46 430 q 611 431 411 431 q 778 430 707 431 l 746 317 l 15 317 l 46 430 z "},"౽":{"ha":1124,"x_min":9,"x_max":1031,"o":"m 1022 0 l 204 0 q 19 109 46 0 q 9 180 9 141 q 31 249 9 219 q 89 298 54 280 q 267 330 152 330 q 478 389 428 330 q 498 456 498 413 q 463 530 498 498 q 357 561 428 561 q 189 489 231 561 q 174 420 174 463 l 15 420 q 367 644 28 644 q 556 586 489 644 q 622 437 624 528 q 504 287 622 320 q 389 269 452 272 q 279 261 326 265 q 202 253 231 257 q 152 241 172 248 q 104 172 104 222 q 128 126 104 152 q 204 100 152 100 l 1031 100 l 1022 0 z "},"౾":{"ha":1043,"x_min":2,"x_max":950,"o":"m 246 672 q 130 641 143 672 l 4 641 q 10 660 6 644 q 37 693 15 676 q 246 733 100 733 q 400 693 335 733 q 459 606 459 657 q 431 527 459 554 q 362 492 404 500 q 272 485 320 483 q 181 488 224 487 q 111 483 139 489 q 83 454 83 478 q 112 430 83 435 q 183 422 141 424 q 275 419 226 420 q 367 407 324 417 q 467 311 467 385 q 438 249 467 267 q 367 225 409 231 q 275 219 324 219 q 183 217 226 220 q 112 196 141 213 q 83 141 83 180 q 111 107 83 120 q 183 94 139 94 l 950 94 l 943 0 l 183 0 q 39 52 87 0 q 2 144 2 93 q 30 220 2 194 q 99 257 57 246 q 190 269 141 269 q 281 271 239 270 q 351 279 322 272 q 380 310 380 285 q 351 344 380 335 q 281 354 322 352 q 190 355 239 356 q 99 361 141 354 q 30 389 57 369 q 2 454 2 409 q 30 516 2 498 q 99 538 57 533 q 190 541 141 543 q 281 540 239 539 q 351 555 322 541 q 380 606 380 569 q 246 672 380 672 z "},"౿":{"ha":1102,"x_min":17,"x_max":1015,"o":"m 402 483 q 402 569 437 550 q 319 509 367 587 q 319 425 278 446 q 402 483 361 404 m 1004 335 q 915 93 1015 204 q 667 -44 819 -19 q 313 -17 474 -76 q 63 241 124 52 q 76 498 19 376 q 246 652 122 596 q 452 643 352 691 q 550 535 535 602 q 523 397 565 469 q 419 306 481 326 q 294 314 356 285 q 215 420 233 343 q 175 343 178 387 q 190 256 172 298 q 244 175 207 213 q 331 113 280 137 q 456 76 383 89 q 600 70 528 63 q 831 196 763 85 q 858 253 844 222 q 874 315 872 283 q 820 413 878 387 l 863 487 q 967 431 931 470 q 1004 335 1002 391 z "},"‌":{"ha":131,"x_min":0,"x_max":69,"o":"m 0 -402 l 0 885 l 69 885 l 69 -402 l 0 -402 z "},"‍":{"ha":339,"x_min":0,"x_max":248,"o":"m 0 -402 l 0 885 l 248 885 l 248 824 l 69 824 l 69 -402 l 0 -402 z "},"–":{"ha":594,"x_min":31,"x_max":567,"o":"m 546 307 l 31 307 l 52 450 l 567 450 l 546 307 z "},"—":{"ha":937,"x_min":31,"x_max":917,"o":"m 896 309 l 31 309 l 50 448 l 917 448 l 896 309 z "},"…":{"ha":894,"x_min":31,"x_max":854,"o":"m 150 202 q 213 173 191 202 q 229 95 235 144 q 192 17 222 46 q 119 -13 161 -13 q 55 17 78 -13 q 39 95 31 46 q 78 173 46 144 q 150 202 109 202 m 457 202 q 521 173 498 202 q 537 95 544 144 q 498 17 530 46 q 426 -13 467 -13 q 362 17 385 -13 q 345 95 339 46 q 384 173 352 144 q 457 202 417 202 m 765 202 q 830 173 806 202 q 846 95 854 144 q 807 17 839 46 q 734 -13 776 -13 q 669 17 693 -13 q 654 95 646 46 q 693 173 661 144 q 765 202 724 202 z "},"₹":{"ha":763,"x_min":4,"x_max":615,"o":"m 31 717 l 615 717 l 611 644 l 422 644 q 474 609 456 631 q 506 509 509 565 l 602 509 l 596 441 l 502 441 q 474 343 493 372 q 367 254 439 283 q 309 239 341 243 q 215 244 278 235 q 395 111 309 183 q 572 -26 481 39 l 572 -37 l 406 -37 q 170 163 411 0 q 81 224 124 194 q 4 276 37 254 l 6 331 l 44 320 q 252 306 154 289 q 346 345 306 315 q 396 441 387 376 l 13 441 l 17 509 l 404 509 q 363 604 404 565 q 280 643 330 639 l 220 644 l 26 644 l 31 717 z "},"℃":{"ha":919,"x_min":-30,"x_max":770,"o":"m 641 172 l 646 22 q 424 -22 535 -22 q 155 97 231 -22 q 112 466 78 217 q 258 833 146 715 q 561 952 370 952 q 676 939 624 952 q 744 918 728 926 q 770 907 761 909 l 724 759 q 662 781 702 767 q 572 794 622 794 q 395 713 450 794 q 319 467 341 631 q 326 217 294 291 q 480 137 361 137 q 641 172 556 137 m 137 898 q 226 1007 202 898 q 176 1115 246 1115 q 91 1007 111 1115 q 91 927 81 956 q 137 898 100 898 m 311 1006 q 128 844 285 844 q 4 1006 -28 844 q 187 1165 30 1165 q 294 1126 261 1165 q 311 1006 328 1087 z "},"℉":{"ha":981,"x_min":-30,"x_max":833,"o":"m 706 367 l 463 367 l 413 0 l 215 0 l 344 933 l 833 933 l 809 772 l 520 772 l 485 519 l 726 519 l 706 367 m 137 898 q 226 1007 202 898 q 176 1115 246 1115 q 91 1007 111 1115 q 91 927 81 956 q 137 898 100 898 m 311 1006 q 128 844 285 844 q 4 1006 -28 844 q 187 1165 30 1165 q 294 1126 261 1165 q 311 1006 328 1087 z "},"™":{"ha":881,"x_min":31,"x_max":865,"o":"m 400 943 l 387 841 l 267 841 l 207 426 l 89 426 l 148 841 l 31 841 l 46 943 l 400 943 m 622 644 q 750 943 707 835 l 865 943 q 846 426 861 696 l 730 426 l 750 737 l 748 735 l 635 474 l 556 474 q 540 613 550 544 q 522 750 530 681 q 450 426 493 593 l 337 426 q 360 522 344 463 q 394 652 376 581 q 469 943 437 819 l 587 943 q 622 644 606 761 z "},"⅓":{"ha":1287,"x_min":107,"x_max":1139,"o":"m 398 15 q 329 25 361 20 q 259 37 296 30 l 830 894 l 969 876 l 398 15 m 107 809 q 315 961 265 930 l 435 961 l 341 302 l 194 302 l 267 804 q 152 715 187 739 l 107 809 m 981 341 q 893 415 996 415 q 778 393 844 415 l 769 494 q 829 512 785 498 q 956 526 872 526 q 1089 485 1039 526 q 1126 361 1139 444 q 1009 206 1111 261 q 1086 156 1059 194 q 1104 50 1113 119 q 1015 -105 1085 -57 q 841 -152 944 -152 q 731 -137 772 -152 q 657 -102 674 -113 l 707 -6 q 828 -43 769 -43 q 919 -20 887 -43 q 958 52 950 2 q 941 121 967 102 q 878 141 915 141 q 793 141 835 141 l 806 241 l 841 241 q 912 248 894 241 q 952 277 930 256 q 981 341 974 298 z "},"←":{"ha":994,"x_min":4,"x_max":731,"o":"m 256 370 l 256 211 q 167 289 209 252 q 4 428 69 378 q 256 644 107 520 l 254 487 l 731 487 l 731 370 l 256 370 z "},"↑":{"ha":576,"x_min":0,"x_max":433,"o":"m 433 441 l 274 441 l 274 -37 l 156 -37 l 156 443 l 0 441 q 78 531 37 487 q 215 693 122 589 q 280 614 243 656 q 355 530 317 572 q 433 441 393 487 z "},"→":{"ha":1037,"x_min":2,"x_max":730,"o":"m 730 428 q 600 320 676 389 q 478 211 524 252 l 478 370 l 2 370 l 2 487 l 480 487 l 478 644 q 730 428 626 520 z "},"↓":{"ha":604,"x_min":0,"x_max":433,"o":"m 433 215 q 215 -37 291 59 q 78 124 144 41 q 0 215 37 170 l 156 215 l 156 693 l 274 693 l 274 215 l 433 215 z "},"◌":{"ha":1224,"x_min":81,"x_max":959,"o":"m 711 -80 q 699 -80 711 -80 q 670 -62 687 -80 q 654 -19 654 -44 q 670 22 654 6 q 711 39 687 39 q 753 22 735 39 q 770 -19 770 6 q 753 -62 770 -44 q 711 -80 735 -80 m 330 581 q 289 597 306 581 q 272 638 272 613 q 289 681 272 663 q 330 698 306 698 q 371 681 354 698 q 389 638 389 663 q 371 597 389 613 q 330 581 354 581 m 793 119 q 809 159 793 143 q 851 176 826 176 q 893 159 876 176 q 909 119 909 143 q 893 77 909 94 q 851 59 876 59 q 809 77 826 59 q 793 119 793 94 m 131 500 q 149 541 131 524 q 192 557 167 557 q 234 541 217 557 q 252 500 252 524 q 234 458 252 476 q 192 441 217 441 q 149 458 167 441 q 131 500 131 476 m 330 -80 q 289 -62 306 -80 q 272 -19 272 -44 q 289 22 272 6 q 330 39 306 39 q 371 22 354 39 q 389 -19 389 6 q 371 -62 389 -44 q 330 -80 354 -80 m 711 581 q 699 581 711 581 q 670 597 687 581 q 654 638 654 613 q 670 681 654 663 q 711 698 687 698 q 753 681 735 698 q 770 638 770 663 q 753 597 770 613 q 711 581 735 581 m 793 500 q 809 541 793 524 q 851 557 826 557 q 893 541 876 557 q 909 500 909 524 q 893 458 909 476 q 851 441 876 441 q 809 458 826 441 q 793 500 793 476 m 131 119 q 149 159 131 143 q 192 176 167 176 q 234 159 217 176 q 252 119 252 143 q 234 77 252 94 q 192 59 217 59 q 149 77 167 59 q 131 119 131 94 m 844 309 q 861 350 844 333 q 903 367 878 367 q 944 350 928 367 q 959 309 959 333 q 944 269 959 285 q 903 252 928 252 q 861 269 878 252 q 844 309 844 285 m 81 309 q 98 350 81 333 q 139 367 115 367 q 181 350 163 367 q 198 309 198 333 q 181 269 198 285 q 139 252 163 252 q 98 269 115 252 q 81 309 81 285 m 461 -72 q 479 -31 461 -48 q 520 -13 496 -13 q 562 -31 544 -13 q 580 -72 580 -48 q 562 -114 580 -96 q 520 -131 544 -131 q 479 -114 496 -131 q 461 -72 461 -96 m 461 691 q 479 732 461 715 q 520 750 496 750 q 562 732 544 750 q 580 691 580 715 q 562 649 580 667 q 520 631 544 631 q 479 649 496 631 q 461 691 461 667 z "}}}
